NotoSerifArmenian-CondensedSemiBold.ufo
<glyph name="dieresiscomb" format="2">
  <unicode hex="0308"/>
  <anchor x="-1" y="536" name="_top"/>
  <outline>
    <contour>
      <point x="82" y="629" type="curve" smooth="yes"/>
      <point x="108" y="629"/>
      <point x="135" y="645"/>
      <point x="135" y="690" type="curve" smooth="yes"/>
      <point x="135" y="737"/>
      <point x="108" y="752"/>
      <point x="82" y="752" type="curve" smooth="yes"/>
      <point x="53" y="752"/>
      <point x="28" y="737"/>
      <point x="28" y="690" type="curve" smooth="yes"/>
      <point x="28" y="645"/>
      <point x="53" y="629"/>
    </contour>
    <contour>
      <point x="-85" y="629" type="curve" smooth="yes"/>
      <point x="-57" y="629"/>
      <point x="-30" y="645"/>
      <point x="-30" y="690" type="curve" smooth="yes"/>
      <point x="-30" y="737"/>
      <point x="-57" y="752"/>
      <point x="-85" y="752" type="curve" smooth="yes"/>
      <point x="-112" y="752"/>
      <point x="-137" y="737"/>
      <point x="-137" y="690" type="curve" smooth="yes"/>
      <point x="-137" y="645"/>
      <point x="-112" y="629"/>
    </contour>
  </outline>
</glyph>
<glyph name="uni0531" format="2">
  <advance width="751"/>
  <unicode hex="0531"/>
  <note>
uni0531
</note>
  <anchor x="312" y="714" name="top"/>
  <outline>
    <contour>
      <point x="363" y="714" type="line"/>
      <point x="363" y="667" type="line"/>
      <point x="400" y="667"/>
      <point x="418" y="659"/>
      <point x="418" y="599" type="curve" smooth="yes"/>
      <point x="418" y="212" type="line" smooth="yes"/>
      <point x="418" y="112"/>
      <point x="383" y="53"/>
      <point x="313" y="53" type="curve" smooth="yes"/>
      <point x="242" y="53"/>
      <point x="205" y="91"/>
      <point x="205" y="210" type="curve" smooth="yes"/>
      <point x="205" y="714" type="line"/>
      <point x="29" y="714" type="line"/>
      <point x="29" y="667" type="line"/>
      <point x="71" y="667"/>
      <point x="82" y="660"/>
      <point x="82" y="599" type="curve" smooth="yes"/>
      <point x="82" y="217" type="line" smooth="yes"/>
      <point x="82" y="54"/>
      <point x="170" y="-10"/>
      <point x="312" y="-10" type="curve" smooth="yes"/>
      <point x="476" y="-10"/>
      <point x="541" y="83"/>
      <point x="541" y="210" type="curve" smooth="yes"/>
      <point x="541" y="714" type="line"/>
    </contour>
    <contour>
      <point x="535" y="244" type="curve"/>
      <point x="533" y="186" type="line"/>
      <point x="540" y="190"/>
      <point x="554" y="192"/>
      <point x="564" y="192" type="curve" smooth="yes"/>
      <point x="601" y="192"/>
      <point x="612" y="174"/>
      <point x="612" y="96" type="curve" smooth="yes"/>
      <point x="612" y="0" type="line"/>
      <point x="734" y="0" type="line"/>
      <point x="734" y="94" type="line" smooth="yes"/>
      <point x="734" y="212"/>
      <point x="693" y="252"/>
      <point x="600" y="252" type="curve" smooth="yes"/>
      <point x="570" y="252"/>
      <point x="554" y="248"/>
    </contour>
  </outline>
</glyph>
<glyph name="uni0532" format="2">
  <advance width="596"/>
  <unicode hex="0532"/>
  <note>
uni0532
</note>
  <outline>
    <contour>
      <point x="258" y="0" type="line"/>
      <point x="258" y="47" type="line"/>
      <point x="222" y="47"/>
      <point x="203" y="55"/>
      <point x="203" y="115" type="curve" smooth="yes"/>
      <point x="203" y="502" type="line" smooth="yes"/>
      <point x="203" y="602"/>
      <point x="238" y="661"/>
      <point x="308" y="661" type="curve" smooth="yes"/>
      <point x="380" y="661"/>
      <point x="416" y="623"/>
      <point x="416" y="504" type="curve" smooth="yes"/>
      <point x="416" y="417" type="line"/>
      <point x="539" y="417" type="line"/>
      <point x="539" y="497" type="line" smooth="yes"/>
      <point x="539" y="660"/>
      <point x="452" y="724"/>
      <point x="310" y="724" type="curve" smooth="yes"/>
      <point x="145" y="724"/>
      <point x="80" y="631"/>
      <point x="80" y="504" type="curve" smooth="yes"/>
      <point x="80" y="0" type="line"/>
    </contour>
    <contour>
      <point x="187" y="290" type="line"/>
      <point x="531" y="290" type="line"/>
      <point x="531" y="345" type="line"/>
      <point x="187" y="345" type="line"/>
    </contour>
  </outline>
</glyph>
<glyph name="uni0533" format="2">
  <advance width="655"/>
  <unicode hex="0533"/>
  <note>
uni0533
</note>
  <outline>
    <contour>
      <point x="380" y="0" type="line"/>
      <point x="556" y="0" type="line"/>
      <point x="556" y="47" type="line"/>
      <point x="514" y="47"/>
      <point x="503" y="54"/>
      <point x="503" y="115" type="curve" smooth="yes"/>
      <point x="503" y="497" type="line" smooth="yes"/>
      <point x="503" y="660"/>
      <point x="414" y="724"/>
      <point x="271" y="724" type="curve" smooth="yes"/>
      <point x="110" y="724"/>
      <point x="44" y="633"/>
      <point x="44" y="506" type="curve" smooth="yes"/>
      <point x="44" y="369"/>
      <point x="114" y="295"/>
      <point x="271" y="295" type="curve" smooth="yes"/>
      <point x="380" y="295" type="line"/>
    </contour>
    <contour>
      <point x="272" y="350" type="line" smooth="yes"/>
      <point x="199" y="350"/>
      <point x="167" y="412"/>
      <point x="167" y="505" type="curve" smooth="yes"/>
      <point x="167" y="603"/>
      <point x="202" y="661"/>
      <point x="272" y="661" type="curve" smooth="yes"/>
      <point x="344" y="661"/>
      <point x="380" y="623"/>
      <point x="380" y="504" type="curve" smooth="yes"/>
      <point x="380" y="350" type="line"/>
    </contour>
    <contour>
      <point x="488" y="295" type="line"/>
      <point x="651" y="295" type="line"/>
      <point x="651" y="350" type="line"/>
      <point x="488" y="350" type="line"/>
    </contour>
  </outline>
</glyph>
<glyph name="uni0534" format="2">
  <advance width="668"/>
  <unicode hex="0534"/>
  <note>
uni0534
</note>
  <outline>
    <contour>
      <point x="57" y="349" type="line"/>
      <point x="180" y="349" type="line"/>
      <point x="180" y="502" type="line" smooth="yes"/>
      <point x="180" y="602"/>
      <point x="215" y="661"/>
      <point x="285" y="661" type="curve" smooth="yes"/>
      <point x="356" y="661"/>
      <point x="392" y="623"/>
      <point x="392" y="504" type="curve" smooth="yes"/>
      <point x="392" y="0" type="line"/>
      <point x="569" y="0" type="line"/>
      <point x="569" y="47" type="line"/>
      <point x="527" y="47"/>
      <point x="516" y="54"/>
      <point x="516" y="115" type="curve" smooth="yes"/>
      <point x="516" y="497" type="line" smooth="yes"/>
      <point x="516" y="660"/>
      <point x="426" y="724"/>
      <point x="284" y="724" type="curve" smooth="yes"/>
      <point x="120" y="724"/>
      <point x="57" y="631"/>
      <point x="57" y="504" type="curve" smooth="yes"/>
    </contour>
    <contour>
      <point x="500" y="292" type="line"/>
      <point x="664" y="292" type="line"/>
      <point x="664" y="347" type="line"/>
      <point x="500" y="347" type="line"/>
    </contour>
  </outline>
</glyph>
<glyph name="uni0535" format="2">
  <advance width="591"/>
  <unicode hex="0535"/>
  <note>
uni0535
</note>
  <outline>
    <contour>
      <point x="313" y="-10" type="curve" smooth="yes"/>
      <point x="478" y="-10"/>
      <point x="541" y="83"/>
      <point x="541" y="210" type="curve" smooth="yes"/>
      <point x="541" y="294" type="line"/>
      <point x="418" y="294" type="line"/>
      <point x="418" y="216" type="line" smooth="yes"/>
      <point x="418" y="116"/>
      <point x="383" y="53"/>
      <point x="313" y="53" type="curve" smooth="yes"/>
      <point x="242" y="53"/>
      <point x="205" y="95"/>
      <point x="205" y="214" type="curve" smooth="yes"/>
      <point x="205" y="714" type="line"/>
      <point x="29" y="714" type="line"/>
      <point x="29" y="667" type="line"/>
      <point x="71" y="667"/>
      <point x="82" y="660"/>
      <point x="82" y="599" type="curve" smooth="yes"/>
      <point x="82" y="217" type="line" smooth="yes"/>
      <point x="82" y="54"/>
      <point x="171" y="-10"/>
    </contour>
    <contour>
      <point x="187" y="433" type="line"/>
      <point x="531" y="433" type="line"/>
      <point x="531" y="488" type="line"/>
      <point x="187" y="488" type="line"/>
    </contour>
  </outline>
</glyph>
<glyph name="uni0536" format="2">
  <advance width="542"/>
  <unicode hex="0536"/>
  <note>
uni0536
</note>
  <outline>
    <contour>
      <point x="253" y="280" type="curve"/>
      <point x="392" y="280"/>
      <point x="493" y="369"/>
      <point x="493" y="491" type="curve" smooth="yes"/>
      <point x="493" y="639"/>
      <point x="398" y="725"/>
      <point x="264" y="725" type="curve" smooth="yes"/>
      <point x="129" y="725"/>
      <point x="36" y="638"/>
      <point x="36" y="498" type="curve" smooth="yes"/>
      <point x="36" y="365"/>
      <point x="119" y="280"/>
    </contour>
    <contour>
      <point x="47" y="0" type="line"/>
      <point x="166" y="0" type="line"/>
      <point x="166" y="195" type="line"/>
      <point x="47" y="195" type="line"/>
    </contour>
    <contour>
      <point x="391" y="0" type="line"/>
      <point x="515" y="0" type="line"/>
      <point x="515" y="14" type="line" smooth="yes"/>
      <point x="515" y="107"/>
      <point x="468" y="143"/>
      <point x="369" y="143" type="curve" smooth="yes"/>
      <point x="107" y="143" type="line"/>
      <point x="107" y="88" type="line"/>
      <point x="318" y="88" type="line" smooth="yes"/>
      <point x="375" y="88"/>
      <point x="391" y="69"/>
      <point x="391" y="16" type="curve" smooth="yes"/>
    </contour>
    <contour>
      <point x="161" y="92" type="line"/>
      <point x="347" y="103"/>
      <point x="493" y="234"/>
      <point x="493" y="491" type="curve"/>
      <point x="369" y="491" type="line"/>
      <point x="369" y="239"/>
      <point x="288" y="143"/>
      <point x="161" y="143" type="curve"/>
    </contour>
    <contour>
      <point x="265" y="338" type="curve"/>
      <point x="203" y="338"/>
      <point x="166" y="394"/>
      <point x="166" y="498" type="curve" smooth="yes"/>
      <point x="166" y="612"/>
      <point x="206" y="667"/>
      <point x="265" y="667" type="curve" smooth="yes"/>
      <point x="326" y="667"/>
      <point x="362" y="609"/>
      <point x="362" y="506" type="curve" smooth="yes"/>
      <point x="362" y="395"/>
      <point x="324" y="338"/>
    </contour>
  </outline>
</glyph>
<glyph name="uni0537" format="2">
  <advance width="505"/>
  <unicode hex="0537"/>
  <note>
uni0537
</note>
  <outline>
    <contour>
      <point x="205" y="57" type="line"/>
      <point x="205" y="714" type="line"/>
      <point x="29" y="714" type="line"/>
      <point x="29" y="667" type="line"/>
      <point x="71" y="667"/>
      <point x="82" y="660"/>
      <point x="82" y="599" type="curve" smooth="yes"/>
      <point x="82" y="0" type="line"/>
    </contour>
    <contour>
      <point x="187" y="433" type="line"/>
      <point x="456" y="433" type="line"/>
      <point x="456" y="488" type="line"/>
      <point x="187" y="488" type="line"/>
    </contour>
    <contour>
      <point x="313" y="111" type="curve" smooth="yes"/>
      <point x="252" y="111"/>
      <point x="183" y="92"/>
      <point x="82" y="48" type="curve"/>
      <point x="82" y="0" type="line"/>
      <point x="142" y="28"/>
      <point x="219" y="48"/>
      <point x="263" y="48" type="curve" smooth="yes"/>
      <point x="318" y="48"/>
      <point x="337" y="27"/>
      <point x="337" y="-33" type="curve" smooth="yes"/>
      <point x="337" y="-62" type="line"/>
      <point x="461" y="-62" type="line"/>
      <point x="461" y="-34" type="line" smooth="yes"/>
      <point x="461" y="69"/>
      <point x="413" y="111"/>
    </contour>
  </outline>
</glyph>
<glyph name="uni0538" format="2">
  <advance width="596"/>
  <unicode hex="0538"/>
  <note>
uni0538
</note>
  <outline>
    <contour>
      <point x="310" y="724" type="curve" smooth="yes"/>
      <point x="145" y="724"/>
      <point x="80" y="631"/>
      <point x="80" y="504" type="curve" smooth="yes"/>
      <point x="80" y="0" type="line"/>
      <point x="203" y="0" type="line"/>
      <point x="203" y="502" type="line" smooth="yes"/>
      <point x="203" y="602"/>
      <point x="238" y="661"/>
      <point x="308" y="661" type="curve" smooth="yes"/>
      <point x="380" y="661"/>
      <point x="416" y="623"/>
      <point x="416" y="504" type="curve" smooth="yes"/>
      <point x="416" y="417" type="line"/>
      <point x="539" y="417" type="line"/>
      <point x="539" y="497" type="line" smooth="yes"/>
      <point x="539" y="660"/>
      <point x="452" y="724"/>
    </contour>
    <contour>
      <point x="187" y="0" type="line"/>
      <point x="531" y="0" type="line"/>
      <point x="531" y="55" type="line"/>
      <point x="187" y="55" type="line"/>
    </contour>
  </outline>
</glyph>
<glyph name="uni0539" format="2">
  <advance width="698"/>
  <unicode hex="0539"/>
  <note>
uni0539
</note>
  <outline>
    <contour>
      <point x="258" y="0" type="line"/>
      <point x="258" y="47" type="line"/>
      <point x="222" y="47"/>
      <point x="203" y="55"/>
      <point x="203" y="115" type="curve" smooth="yes"/>
      <point x="203" y="502" type="line" smooth="yes"/>
      <point x="203" y="611"/>
      <point x="255" y="661"/>
      <point x="351" y="661" type="curve" smooth="yes"/>
      <point x="456" y="661"/>
      <point x="506" y="613"/>
      <point x="506" y="466" type="curve"/>
      <point x="629" y="460" type="line"/>
      <point x="629" y="648"/>
      <point x="525" y="724"/>
      <point x="354" y="724" type="curve" smooth="yes"/>
      <point x="159" y="724"/>
      <point x="80" y="635"/>
      <point x="80" y="504" type="curve" smooth="yes"/>
      <point x="80" y="0" type="line"/>
    </contour>
    <contour>
      <point x="470" y="419" type="curve" smooth="yes"/>
      <point x="506" y="419" type="line"/>
      <point x="506" y="219"/>
      <point x="491" y="185"/>
      <point x="442" y="185" type="curve" smooth="yes"/>
      <point x="399" y="185"/>
      <point x="387" y="220"/>
      <point x="387" y="300" type="curve" smooth="yes"/>
      <point x="387" y="383"/>
      <point x="415" y="419"/>
    </contour>
    <contour>
      <point x="693" y="474" type="line"/>
      <point x="450" y="474" type="line" smooth="yes"/>
      <point x="330" y="474"/>
      <point x="274" y="413"/>
      <point x="274" y="307" type="curve" smooth="yes"/>
      <point x="274" y="194"/>
      <point x="325" y="130"/>
      <point x="442" y="130" type="curve" smooth="yes"/>
      <point x="565" y="130"/>
      <point x="629" y="211"/>
      <point x="629" y="419" type="curve"/>
      <point x="693" y="419" type="line"/>
    </contour>
  </outline>
</glyph>
<glyph name="uni053A" format="2">
  <advance width="635"/>
  <unicode hex="053A"/>
  <note>
uni053A
</note>
  <outline>
    <contour>
      <point x="271" y="-10" type="curve" smooth="yes"/>
      <point x="414" y="-10"/>
      <point x="503" y="54"/>
      <point x="503" y="217" type="curve" smooth="yes"/>
      <point x="503" y="714" type="line"/>
      <point x="327" y="714" type="line"/>
      <point x="327" y="667" type="line"/>
      <point x="369" y="667"/>
      <point x="380" y="660"/>
      <point x="380" y="599" type="curve" smooth="yes"/>
      <point x="380" y="462" type="line"/>
      <point x="284" y="462" type="line" smooth="yes"/>
      <point x="114" y="462"/>
      <point x="44" y="390"/>
      <point x="44" y="230" type="curve" smooth="yes"/>
      <point x="44" y="90"/>
      <point x="110" y="-10"/>
    </contour>
    <contour>
      <point x="272" y="53" type="curve" smooth="yes"/>
      <point x="202" y="53"/>
      <point x="167" y="114"/>
      <point x="167" y="231" type="curve" smooth="yes"/>
      <point x="167" y="352"/>
      <point x="199" y="407"/>
      <point x="285" y="407" type="curve" smooth="yes"/>
      <point x="380" y="407" type="line"/>
      <point x="380" y="226" type="line" smooth="yes"/>
      <point x="380" y="94"/>
      <point x="341" y="53"/>
    </contour>
    <contour>
      <point x="488" y="462" type="line"/>
      <point x="488" y="407" type="line"/>
      <point x="630" y="407" type="line"/>
      <point x="630" y="462" type="line"/>
    </contour>
  </outline>
</glyph>
<glyph name="uni053B" format="2">
  <advance width="559"/>
  <unicode hex="053B"/>
  <note>
uni053B
</note>
  <outline>
    <contour>
      <point x="205" y="340" type="line" smooth="yes"/>
      <point x="205" y="421"/>
      <point x="246" y="477"/>
      <point x="303" y="477" type="curve" smooth="yes"/>
      <point x="364" y="477"/>
      <point x="386" y="442"/>
      <point x="386" y="367" type="curve" smooth="yes"/>
      <point x="386" y="272" type="line"/>
      <point x="510" y="272" type="line"/>
      <point x="510" y="372" type="line" smooth="yes"/>
      <point x="510" y="498"/>
      <point x="449" y="554"/>
      <point x="347" y="554" type="curve" smooth="yes"/>
      <point x="292" y="554"/>
      <point x="241" y="530"/>
      <point x="206" y="476" type="curve"/>
      <point x="202" y="476" type="line"/>
      <point x="204" y="499"/>
      <point x="205" y="522"/>
      <point x="205" y="545" type="curve" smooth="yes"/>
      <point x="205" y="714" type="line"/>
      <point x="29" y="714" type="line"/>
      <point x="29" y="667" type="line"/>
      <point x="71" y="667"/>
      <point x="82" y="660"/>
      <point x="82" y="599" type="curve" smooth="yes"/>
      <point x="82" y="0" type="line"/>
      <point x="258" y="0" type="line"/>
      <point x="258" y="47" type="line"/>
      <point x="223" y="47"/>
      <point x="205" y="55"/>
      <point x="205" y="115" type="curve" smooth="yes"/>
    </contour>
  </outline>
</glyph>
<glyph name="uni053C" format="2">
  <advance width="470"/>
  <unicode hex="053C"/>
  <note>
uni053C
</note>
  <outline>
    <contour>
      <point x="461" y="107" type="line"/>
      <point x="414" y="107" type="line"/>
      <point x="414" y="64"/>
      <point x="411" y="55"/>
      <point x="376" y="55" type="curve" smooth="yes"/>
      <point x="205" y="55" type="line"/>
      <point x="205" y="714" type="line"/>
      <point x="29" y="714" type="line"/>
      <point x="29" y="669" type="line"/>
      <point x="71" y="669"/>
      <point x="82" y="659"/>
      <point x="82" y="600" type="curve" smooth="yes"/>
      <point x="82" y="0" type="line"/>
      <point x="461" y="0" type="line"/>
    </contour>
  </outline>
</glyph>
<glyph name="uni053D" format="2">
  <advance width="760"/>
  <unicode hex="053D"/>
  <note>
uni053D
</note>
  <outline>
    <contour>
      <point x="205" y="115" type="curve" smooth="yes"/>
      <point x="205" y="714" type="line"/>
      <point x="29" y="714" type="line"/>
      <point x="29" y="667" type="line"/>
      <point x="71" y="667"/>
      <point x="81" y="660"/>
      <point x="81" y="599" type="curve" smooth="yes"/>
      <point x="81" y="0" type="line"/>
      <point x="257" y="0" type="line"/>
      <point x="257" y="47" type="line"/>
      <point x="222" y="47"/>
      <point x="205" y="55"/>
    </contour>
    <contour>
      <point x="544" y="513" type="line"/>
      <point x="574" y="513"/>
      <point x="587" y="504"/>
      <point x="587" y="462" type="curve" smooth="yes"/>
      <point x="587" y="336" type="line" smooth="yes"/>
      <point x="587" y="250"/>
      <point x="569" y="216"/>
      <point x="516" y="216" type="curve" smooth="yes"/>
      <point x="466" y="216"/>
      <point x="447" y="249"/>
      <point x="447" y="336" type="curve" smooth="yes"/>
      <point x="447" y="560" type="line"/>
      <point x="185" y="560" type="line"/>
      <point x="185" y="505" type="line"/>
      <point x="324" y="505" type="line"/>
      <point x="324" y="336" type="line" smooth="yes"/>
      <point x="324" y="214"/>
      <point x="405" y="159"/>
      <point x="516" y="159" type="curve" smooth="yes"/>
      <point x="629" y="159"/>
      <point x="711" y="216"/>
      <point x="711" y="337" type="curve" smooth="yes"/>
      <point x="711" y="560" type="line"/>
      <point x="544" y="560" type="line"/>
    </contour>
  </outline>
</glyph>
<glyph name="uni053E" format="2">
  <advance width="610"/>
  <unicode hex="053E"/>
  <note>
uni053E
</note>
  <outline>
    <contour>
      <point x="232" y="590" type="curve" smooth="yes"/>
      <point x="161" y="607"/>
      <point x="141" y="645"/>
      <point x="141" y="714" type="curve"/>
      <point x="17" y="714" type="line"/>
      <point x="17" y="618"/>
      <point x="72" y="567"/>
      <point x="185" y="541" type="curve" smooth="yes"/>
      <point x="366" y="500"/>
      <point x="432" y="412"/>
      <point x="432" y="264" type="curve" smooth="yes"/>
      <point x="432" y="121"/>
      <point x="382" y="48"/>
      <point x="301" y="48" type="curve" smooth="yes"/>
      <point x="207" y="48"/>
      <point x="171" y="127"/>
      <point x="171" y="255" type="curve" smooth="yes"/>
      <point x="171" y="461"/>
      <point x="303" y="665"/>
      <point x="415" y="665" type="curve" smooth="yes"/>
      <point x="465" y="665"/>
      <point x="492" y="637"/>
      <point x="492" y="562" type="curve"/>
      <point x="553" y="562"/>
      <point x="598" y="589"/>
      <point x="598" y="630" type="curve" smooth="yes"/>
      <point x="598" y="689"/>
      <point x="550" y="726"/>
      <point x="463" y="726" type="curve" smooth="yes"/>
      <point x="239" y="726"/>
      <point x="40" y="460"/>
      <point x="40" y="259" type="curve" smooth="yes"/>
      <point x="40" y="92"/>
      <point x="122" y="-10"/>
      <point x="301" y="-10" type="curve" smooth="yes"/>
      <point x="455" y="-10"/>
      <point x="563" y="90"/>
      <point x="563" y="265" type="curve" smooth="yes"/>
      <point x="563" y="424"/>
      <point x="468" y="534"/>
    </contour>
  </outline>
</glyph>
<glyph name="uni053F" format="2">
  <advance width="588"/>
  <unicode hex="053F"/>
  <note>
uni053F
</note>
  <outline>
    <contour>
      <point x="382" y="0" type="line"/>
      <point x="559" y="0" type="line"/>
      <point x="559" y="47" type="line"/>
      <point x="517" y="47"/>
      <point x="506" y="54"/>
      <point x="506" y="115" type="curve" smooth="yes"/>
      <point x="506" y="481" type="line"/>
      <point x="331" y="481" type="line"/>
      <point x="331" y="433" type="line"/>
      <point x="367" y="433"/>
      <point x="383" y="425"/>
      <point x="383" y="369" type="curve" smooth="yes"/>
      <point x="383" y="333" type="line" smooth="yes"/>
      <point x="383" y="280"/>
      <point x="343" y="230"/>
      <point x="284" y="230" type="curve" smooth="yes"/>
      <point x="224" y="230"/>
      <point x="201" y="266"/>
      <point x="201" y="340" type="curve" smooth="yes"/>
      <point x="201" y="714" type="line"/>
      <point x="25" y="714" type="line"/>
      <point x="25" y="667" type="line"/>
      <point x="60" y="667"/>
      <point x="78" y="659"/>
      <point x="78" y="599" type="curve" smooth="yes"/>
      <point x="78" y="335" type="line"/>
      <point x="78" y="210"/>
      <point x="139" y="153"/>
      <point x="240" y="153" type="curve" smooth="yes"/>
      <point x="296" y="153"/>
      <point x="348" y="178"/>
      <point x="383" y="231" type="curve"/>
      <point x="387" y="231" type="line"/>
      <point x="383" y="208"/>
      <point x="382" y="185"/>
      <point x="382" y="163" type="curve" smooth="yes"/>
    </contour>
  </outline>
</glyph>
<glyph name="uni0540" format="2">
  <advance width="539"/>
  <unicode hex="0540"/>
  <note>
uni0540
</note>
  <outline>
    <contour>
      <point x="372" y="-62" type="line"/>
      <point x="495" y="-62" type="line"/>
      <point x="495" y="-48" type="line" smooth="yes"/>
      <point x="495" y="52"/>
      <point x="447" y="88"/>
      <point x="324" y="110" type="curve" smooth="yes"/>
      <point x="53" y="159" type="line"/>
      <point x="40" y="101" type="line"/>
      <point x="313" y="52" type="line" smooth="yes"/>
      <point x="355" y="44"/>
      <point x="372" y="18"/>
      <point x="372" y="-44" type="curve" smooth="yes"/>
    </contour>
    <contour>
      <point x="164" y="101" type="line"/>
      <point x="182" y="505"/>
      <point x="238" y="667"/>
      <point x="325" y="667" type="curve" smooth="yes"/>
      <point x="371" y="667"/>
      <point x="395" y="630"/>
      <point x="395" y="538" type="curve"/>
      <point x="455" y="538"/>
      <point x="501" y="568"/>
      <point x="501" y="613" type="curve" smooth="yes"/>
      <point x="501" y="686"/>
      <point x="444" y="726"/>
      <point x="339" y="726" type="curve" smooth="yes"/>
      <point x="157" y="726"/>
      <point x="66" y="552"/>
      <point x="40" y="101" type="curve"/>
    </contour>
  </outline>
</glyph>
<glyph name="uni0541" format="2">
  <advance width="540"/>
  <unicode hex="0541"/>
  <note>
uni0541
</note>
  <outline>
    <contour>
      <point x="256" y="367" type="curve" smooth="yes"/>
      <point x="194" y="367"/>
      <point x="158" y="415"/>
      <point x="158" y="512" type="curve" smooth="yes"/>
      <point x="158" y="611"/>
      <point x="198" y="666"/>
      <point x="257" y="666" type="curve" smooth="yes"/>
      <point x="323" y="666"/>
      <point x="362" y="613"/>
      <point x="362" y="481" type="curve" smooth="yes"/>
      <point x="362" y="460"/>
      <point x="360" y="425"/>
      <point x="358" y="404" type="curve"/>
      <point x="336" y="380"/>
      <point x="295" y="367"/>
    </contour>
    <contour>
      <point x="354" y="335" type="curve"/>
      <point x="338" y="163"/>
      <point x="295" y="46"/>
      <point x="205" y="46" type="curve" smooth="yes"/>
      <point x="173" y="46"/>
      <point x="154" y="70"/>
      <point x="154" y="109" type="curve" smooth="yes"/>
      <point x="154" y="150"/>
      <point x="178" y="176"/>
      <point x="210" y="176" type="curve" smooth="yes"/>
      <point x="292" y="176"/>
      <point x="311" y="-10"/>
      <point x="462" y="-10" type="curve" smooth="yes"/>
      <point x="497" y="-10"/>
      <point x="517" y="17"/>
      <point x="518" y="55" type="curve"/>
      <point x="339" y="55"/>
      <point x="347" y="232"/>
      <point x="193" y="232" type="curve" smooth="yes"/>
      <point x="104" y="232"/>
      <point x="44" y="185"/>
      <point x="44" y="109" type="curve" smooth="yes"/>
      <point x="44" y="33"/>
      <point x="94" y="-10"/>
      <point x="194" y="-10" type="curve" smooth="yes"/>
      <point x="384" y="-10"/>
      <point x="489" y="215"/>
      <point x="489" y="449" type="curve" smooth="yes"/>
      <point x="489" y="649"/>
      <point x="389" y="725"/>
      <point x="257" y="725" type="curve" smooth="yes"/>
      <point x="126" y="725"/>
      <point x="32" y="644"/>
      <point x="32" y="512" type="curve" smooth="yes"/>
      <point x="32" y="387"/>
      <point x="126" y="311"/>
      <point x="244" y="311" type="curve" smooth="yes"/>
      <point x="288" y="311"/>
      <point x="326" y="321"/>
    </contour>
  </outline>
</glyph>
<glyph name="uni0542" format="2">
  <advance width="668"/>
  <unicode hex="0542"/>
  <note>
uni0542
</note>
  <outline>
    <contour>
      <point x="500" y="0" type="line"/>
      <point x="664" y="0" type="line"/>
      <point x="664" y="55" type="line"/>
      <point x="500" y="55" type="line"/>
    </contour>
    <contour>
      <point x="284" y="724" type="curve" smooth="yes"/>
      <point x="120" y="724"/>
      <point x="57" y="631"/>
      <point x="57" y="504" type="curve" smooth="yes"/>
      <point x="57" y="349" type="line"/>
      <point x="180" y="349" type="line"/>
      <point x="180" y="502" type="line" smooth="yes"/>
      <point x="180" y="602"/>
      <point x="215" y="661"/>
      <point x="285" y="661" type="curve" smooth="yes"/>
      <point x="356" y="661"/>
      <point x="392" y="623"/>
      <point x="392" y="504" type="curve" smooth="yes"/>
      <point x="392" y="0" type="line"/>
      <point x="516" y="0" type="line"/>
      <point x="516" y="497" type="line" smooth="yes"/>
      <point x="516" y="660"/>
      <point x="426" y="724"/>
    </contour>
  </outline>
</glyph>
<glyph name="uni0543" format="2">
  <advance width="607"/>
  <unicode hex="0543"/>
  <note>
uni0543
</note>
  <outline>
    <contour>
      <point x="551" y="0" type="line"/>
      <point x="551" y="457"/>
      <point x="432" y="626"/>
      <point x="52" y="626" type="curve"/>
      <point x="52" y="570" type="line"/>
      <point x="362" y="570"/>
      <point x="429" y="415"/>
      <point x="429" y="55" type="curve"/>
      <point x="290" y="55" type="line" smooth="yes"/>
      <point x="209" y="55"/>
      <point x="163" y="99"/>
      <point x="163" y="208" type="curve" smooth="yes"/>
      <point x="163" y="419"/>
      <point x="278" y="662"/>
      <point x="403" y="662" type="curve" smooth="yes"/>
      <point x="448" y="662"/>
      <point x="468" y="632"/>
      <point x="468" y="556" type="curve"/>
      <point x="529" y="556"/>
      <point x="573" y="582"/>
      <point x="573" y="624" type="curve" smooth="yes"/>
      <point x="573" y="685"/>
      <point x="525" y="726"/>
      <point x="445" y="726" type="curve" smooth="yes"/>
      <point x="254" y="726"/>
      <point x="33" y="434"/>
      <point x="33" y="212" type="curve" smooth="yes"/>
      <point x="33" y="64"/>
      <point x="113" y="0"/>
      <point x="290" y="0" type="curve" smooth="yes"/>
    </contour>
  </outline>
</glyph>
<glyph name="uni0544" format="2">
  <advance width="723"/>
  <unicode hex="0544"/>
  <note>
uni0544
</note>
  <outline>
    <contour>
      <point x="363" y="714" type="line"/>
      <point x="363" y="667" type="line"/>
      <point x="400" y="667"/>
      <point x="418" y="659"/>
      <point x="418" y="599" type="curve" smooth="yes"/>
      <point x="418" y="216" type="line" smooth="yes"/>
      <point x="418" y="116"/>
      <point x="383" y="53"/>
      <point x="313" y="53" type="curve" smooth="yes"/>
      <point x="242" y="53"/>
      <point x="205" y="95"/>
      <point x="205" y="214" type="curve" smooth="yes"/>
      <point x="205" y="714" type="line"/>
      <point x="29" y="714" type="line"/>
      <point x="29" y="667" type="line"/>
      <point x="71" y="667"/>
      <point x="82" y="660"/>
      <point x="82" y="599" type="curve" smooth="yes"/>
      <point x="82" y="217" type="line" smooth="yes"/>
      <point x="82" y="54"/>
      <point x="170" y="-10"/>
      <point x="312" y="-10" type="curve" smooth="yes"/>
      <point x="476" y="-10"/>
      <point x="541" y="83"/>
      <point x="541" y="210" type="curve" smooth="yes"/>
      <point x="541" y="714" type="line"/>
    </contour>
    <contour>
      <point x="564" y="656" type="line" smooth="yes"/>
      <point x="603" y="656"/>
      <point x="620" y="629"/>
      <point x="620" y="534" type="curve"/>
      <point x="677" y="534"/>
      <point x="707" y="569"/>
      <point x="707" y="615" type="curve" smooth="yes"/>
      <point x="707" y="684"/>
      <point x="663" y="714"/>
      <point x="569" y="714" type="curve" smooth="yes"/>
      <point x="518" y="714" type="line"/>
      <point x="518" y="656" type="line"/>
    </contour>
  </outline>
</glyph>
<glyph name="uni0545" format="2">
  <advance width="540"/>
  <unicode hex="0545"/>
  <note>
uni0545
</note>
  <outline>
    <contour>
      <point x="253" y="-11" type="curve" smooth="yes"/>
      <point x="389" y="-11"/>
      <point x="501" y="53"/>
      <point x="501" y="201" type="curve" smooth="yes"/>
      <point x="501" y="326"/>
      <point x="410" y="376"/>
      <point x="346" y="384" type="curve"/>
      <point x="424" y="407"/>
      <point x="479" y="454"/>
      <point x="479" y="553" type="curve" smooth="yes"/>
      <point x="479" y="668"/>
      <point x="398" y="724"/>
      <point x="269" y="724" type="curve" smooth="yes"/>
      <point x="128" y="724"/>
      <point x="71" y="651"/>
      <point x="71" y="592" type="curve" smooth="yes"/>
      <point x="71" y="533"/>
      <point x="119" y="519"/>
      <point x="172" y="519" type="curve"/>
      <point x="172" y="605"/>
      <point x="189" y="668"/>
      <point x="268" y="668" type="curve" smooth="yes"/>
      <point x="326" y="668"/>
      <point x="354" y="628"/>
      <point x="354" y="548" type="curve" smooth="yes"/>
      <point x="354" y="448"/>
      <point x="319" y="408"/>
      <point x="234" y="408" type="curve" smooth="yes"/>
      <point x="34" y="408" type="line"/>
      <point x="34" y="352" type="line"/>
      <point x="236" y="352" type="line" smooth="yes"/>
      <point x="335" y="352"/>
      <point x="372" y="296"/>
      <point x="372" y="196" type="curve" smooth="yes"/>
      <point x="372" y="91"/>
      <point x="330" y="46"/>
      <point x="257" y="46" type="curve" smooth="yes"/>
      <point x="168" y="46"/>
      <point x="130" y="114"/>
      <point x="130" y="217" type="curve"/>
      <point x="69" y="217"/>
      <point x="31" y="187"/>
      <point x="31" y="137" type="curve" smooth="yes"/>
      <point x="31" y="65"/>
      <point x="100" y="-11"/>
    </contour>
  </outline>
</glyph>
<glyph name="uni0546" format="2">
  <advance width="580"/>
  <unicode hex="0546"/>
  <note>
uni0546
</note>
  <outline>
    <contour>
      <point x="294" y="-10" type="curve" smooth="yes"/>
      <point x="436" y="-10"/>
      <point x="523" y="54"/>
      <point x="523" y="217" type="curve" smooth="yes"/>
      <point x="523" y="414" type="line"/>
      <point x="400" y="414" type="line"/>
      <point x="400" y="210" type="line" smooth="yes"/>
      <point x="400" y="91"/>
      <point x="364" y="53"/>
      <point x="292" y="53" type="curve" smooth="yes"/>
      <point x="222" y="53"/>
      <point x="187" y="107"/>
      <point x="187" y="212" type="curve" smooth="yes"/>
      <point x="187" y="352"/>
      <point x="220" y="492"/>
      <point x="275" y="631" type="curve"/>
      <point x="198" y="614" type="line"/>
      <point x="105" y="467"/>
      <point x="58" y="348"/>
      <point x="58" y="210" type="curve" smooth="yes"/>
      <point x="58" y="78"/>
      <point x="130" y="-10"/>
    </contour>
    <contour>
      <point x="275" y="631" type="line"/>
      <point x="162" y="631"/>
      <point x="142" y="674"/>
      <point x="142" y="765" type="curve"/>
      <point x="74" y="765"/>
      <point x="32" y="732"/>
      <point x="32" y="688" type="curve" smooth="yes"/>
      <point x="32" y="616"/>
      <point x="82" y="577"/>
      <point x="225" y="577" type="curve"/>
    </contour>
  </outline>
</glyph>
<glyph name="uni0547" format="2">
  <advance width="565"/>
  <unicode hex="0547"/>
  <note>
uni0547
</note>
  <outline>
    <contour>
      <point x="29" y="642" type="line"/>
      <point x="53" y="652"/>
      <point x="85" y="661"/>
      <point x="117" y="661" type="curve" smooth="yes"/>
      <point x="284" y="661"/>
      <point x="284" y="533"/>
      <point x="417" y="533" type="curve" smooth="yes"/>
      <point x="493" y="533"/>
      <point x="540" y="607"/>
      <point x="540" y="714" type="curve"/>
      <point x="484" y="714" type="line"/>
      <point x="484" y="668"/>
      <point x="454" y="638"/>
      <point x="408" y="638" type="curve" smooth="yes"/>
      <point x="314" y="638"/>
      <point x="266" y="721"/>
      <point x="132" y="721" type="curve" smooth="yes"/>
      <point x="104" y="721"/>
      <point x="57" y="711"/>
      <point x="29" y="699" type="curve"/>
    </contour>
    <contour>
      <point x="331" y="606" type="curve"/>
      <point x="268" y="624" type="line"/>
      <point x="134" y="497"/>
      <point x="48" y="351"/>
      <point x="48" y="210" type="curve" smooth="yes"/>
      <point x="48" y="78"/>
      <point x="120" y="-10"/>
      <point x="284" y="-10" type="curve" smooth="yes"/>
      <point x="427" y="-10"/>
      <point x="514" y="54"/>
      <point x="514" y="217" type="curve" smooth="yes"/>
      <point x="514" y="296" type="line"/>
      <point x="390" y="296" type="line"/>
      <point x="390" y="210" type="line" smooth="yes"/>
      <point x="390" y="91"/>
      <point x="354" y="53"/>
      <point x="283" y="53" type="curve" smooth="yes"/>
      <point x="213" y="53"/>
      <point x="178" y="107"/>
      <point x="178" y="212" type="curve" smooth="yes"/>
      <point x="178" y="355"/>
      <point x="238" y="483"/>
    </contour>
  </outline>
</glyph>
<glyph name="uni0548" format="2">
  <advance width="621"/>
  <unicode hex="0548"/>
  <note>
uni0548
</note>
  <anchor x="310" y="714" name="top"/>
  <outline>
    <contour>
      <point x="258" y="0" type="line"/>
      <point x="258" y="47" type="line"/>
      <point x="222" y="47"/>
      <point x="203" y="55"/>
      <point x="203" y="115" type="curve" smooth="yes"/>
      <point x="203" y="502" type="line" smooth="yes"/>
      <point x="203" y="602"/>
      <point x="238" y="661"/>
      <point x="308" y="661" type="curve" smooth="yes"/>
      <point x="380" y="661"/>
      <point x="416" y="623"/>
      <point x="416" y="504" type="curve" smooth="yes"/>
      <point x="416" y="0" type="line"/>
      <point x="592" y="0" type="line"/>
      <point x="592" y="47" type="line"/>
      <point x="550" y="47"/>
      <point x="539" y="54"/>
      <point x="539" y="115" type="curve" smooth="yes"/>
      <point x="539" y="497" type="line" smooth="yes"/>
      <point x="539" y="660"/>
      <point x="450" y="724"/>
      <point x="307" y="724" type="curve" smooth="yes"/>
      <point x="143" y="724"/>
      <point x="80" y="631"/>
      <point x="80" y="504" type="curve" smooth="yes"/>
      <point x="80" y="0" type="line"/>
    </contour>
  </outline>
</glyph>
<glyph name="uni0549" format="2">
  <advance width="552"/>
  <unicode hex="0549"/>
  <note>
uni0549
</note>
  <outline>
    <contour>
      <point x="217" y="137" type="curve"/>
      <point x="264" y="104" type="line"/>
      <point x="426" y="212"/>
      <point x="509" y="363"/>
      <point x="509" y="504" type="curve" smooth="yes"/>
      <point x="509" y="636"/>
      <point x="437" y="724"/>
      <point x="272" y="724" type="curve" smooth="yes"/>
      <point x="130" y="724"/>
      <point x="43" y="660"/>
      <point x="43" y="497" type="curve" smooth="yes"/>
      <point x="43" y="476" type="line"/>
      <point x="167" y="476" type="line"/>
      <point x="167" y="504" type="line" smooth="yes"/>
      <point x="167" y="623"/>
      <point x="203" y="661"/>
      <point x="274" y="661" type="curve" smooth="yes"/>
      <point x="344" y="661"/>
      <point x="379" y="607"/>
      <point x="379" y="502" type="curve" smooth="yes"/>
      <point x="379" y="359"/>
      <point x="325" y="248"/>
    </contour>
    <contour>
      <point x="496" y="-10" type="curve"/>
      <point x="496" y="52" type="line"/>
      <point x="362" y="55"/>
      <point x="223" y="166"/>
      <point x="157" y="315" type="curve"/>
      <point x="26" y="251" type="line"/>
      <point x="136" y="99"/>
      <point x="312" y="-1"/>
    </contour>
  </outline>
</glyph>
<glyph name="uni054A" format="2">
  <advance width="698"/>
  <unicode hex="054A"/>
  <note>
uni054A
</note>
  <outline>
    <contour>
      <point x="617" y="115" type="curve" smooth="yes"/>
      <point x="617" y="497" type="line" smooth="yes"/>
      <point x="617" y="660"/>
      <point x="504" y="724"/>
      <point x="330" y="724" type="curve" smooth="yes"/>
      <point x="128" y="724"/>
      <point x="49" y="631"/>
      <point x="49" y="504" type="curve" smooth="yes"/>
      <point x="49" y="326" type="line"/>
      <point x="173" y="326" type="line"/>
      <point x="173" y="502" type="line" smooth="yes"/>
      <point x="173" y="602"/>
      <point x="230" y="662"/>
      <point x="329" y="662" type="curve" smooth="yes"/>
      <point x="439" y="662"/>
      <point x="493" y="623"/>
      <point x="493" y="504" type="curve" smooth="yes"/>
      <point x="493" y="0" type="line"/>
      <point x="669" y="0" type="line"/>
      <point x="669" y="47" type="line"/>
      <point x="627" y="47"/>
      <point x="617" y="54"/>
    </contour>
    <contour>
      <point x="271" y="679" type="line"/>
      <point x="271" y="163" type="line"/>
      <point x="394" y="163" type="line"/>
      <point x="394" y="679" type="line"/>
    </contour>
  </outline>
</glyph>
<glyph name="uni054B" format="2">
  <advance width="531"/>
  <unicode hex="054B"/>
  <note>
uni054B
</note>
  <outline>
    <contour>
      <point x="35" y="0" type="line"/>
      <point x="154" y="0" type="line"/>
      <point x="154" y="195" type="line"/>
      <point x="35" y="195" type="line"/>
    </contour>
    <contour>
      <point x="379" y="0" type="line"/>
      <point x="503" y="0" type="line"/>
      <point x="503" y="14" type="line" smooth="yes"/>
      <point x="503" y="107"/>
      <point x="456" y="143"/>
      <point x="357" y="143" type="curve" smooth="yes"/>
      <point x="95" y="143" type="line"/>
      <point x="95" y="87" type="line"/>
      <point x="306" y="87" type="line" smooth="yes"/>
      <point x="363" y="87"/>
      <point x="379" y="68"/>
      <point x="379" y="16" type="curve" smooth="yes"/>
    </contour>
    <contour>
      <point x="230" y="162" type="curve"/>
      <point x="281" y="194" type="line"/>
      <point x="281" y="272"/>
      <point x="250" y="318"/>
      <point x="215" y="362" type="curve" smooth="yes"/>
      <point x="181" y="405"/>
      <point x="151" y="449"/>
      <point x="151" y="520" type="curve" smooth="yes"/>
      <point x="151" y="620"/>
      <point x="190" y="666"/>
      <point x="256" y="666" type="curve" smooth="yes"/>
      <point x="325" y="666"/>
      <point x="362" y="610"/>
      <point x="362" y="492" type="curve" smooth="yes"/>
      <point x="362" y="380"/>
      <point x="340" y="297"/>
      <point x="302" y="241" type="curve" smooth="yes"/>
      <point x="259" y="177"/>
      <point x="207" y="143"/>
      <point x="152" y="143" type="curve"/>
      <point x="278" y="143" type="line"/>
      <point x="406" y="215"/>
      <point x="488" y="337"/>
      <point x="488" y="493" type="curve" smooth="yes"/>
      <point x="488" y="639"/>
      <point x="405" y="725"/>
      <point x="256" y="725" type="curve" smooth="yes"/>
      <point x="118" y="725"/>
      <point x="24" y="638"/>
      <point x="24" y="515" type="curve" smooth="yes"/>
      <point x="24" y="415"/>
      <point x="66" y="367"/>
      <point x="111" y="328" type="curve" smooth="yes"/>
      <point x="166" y="281"/>
      <point x="229" y="250"/>
    </contour>
  </outline>
</glyph>
<glyph name="uni054C" format="2">
  <advance width="751"/>
  <unicode hex="054C"/>
  <note>
uni054C
</note>
  <outline>
    <contour>
      <point x="258" y="0" type="line"/>
      <point x="258" y="47" type="line"/>
      <point x="222" y="47"/>
      <point x="203" y="55"/>
      <point x="203" y="115" type="curve" smooth="yes"/>
      <point x="203" y="502" type="line" smooth="yes"/>
      <point x="203" y="602"/>
      <point x="238" y="661"/>
      <point x="308" y="661" type="curve" smooth="yes"/>
      <point x="380" y="661"/>
      <point x="416" y="623"/>
      <point x="416" y="504" type="curve" smooth="yes"/>
      <point x="416" y="0" type="line"/>
      <point x="592" y="0" type="line"/>
      <point x="592" y="47" type="line"/>
      <point x="550" y="47"/>
      <point x="539" y="54"/>
      <point x="539" y="115" type="curve" smooth="yes"/>
      <point x="539" y="497" type="line" smooth="yes"/>
      <point x="539" y="660"/>
      <point x="450" y="724"/>
      <point x="307" y="724" type="curve" smooth="yes"/>
      <point x="143" y="724"/>
      <point x="80" y="631"/>
      <point x="80" y="504" type="curve" smooth="yes"/>
      <point x="80" y="0" type="line"/>
    </contour>
    <contour>
      <point x="535" y="408" type="curve"/>
      <point x="533" y="349" type="line"/>
      <point x="540" y="353"/>
      <point x="554" y="355"/>
      <point x="564" y="355" type="curve" smooth="yes"/>
      <point x="601" y="355"/>
      <point x="612" y="337"/>
      <point x="612" y="259" type="curve" smooth="yes"/>
      <point x="612" y="176" type="line"/>
      <point x="734" y="176" type="line"/>
      <point x="734" y="257" type="line" smooth="yes"/>
      <point x="734" y="375"/>
      <point x="693" y="415"/>
      <point x="600" y="415" type="curve" smooth="yes"/>
      <point x="570" y="415"/>
      <point x="554" y="411"/>
    </contour>
  </outline>
</glyph>
<glyph name="uni054D" format="2">
  <advance width="621"/>
  <unicode hex="054D"/>
  <note>
uni054D
</note>
  <outline>
    <contour>
      <point x="363" y="714" type="line"/>
      <point x="363" y="667" type="line"/>
      <point x="400" y="667"/>
      <point x="418" y="659"/>
      <point x="418" y="599" type="curve" smooth="yes"/>
      <point x="418" y="216" type="line" smooth="yes"/>
      <point x="418" y="116"/>
      <point x="383" y="53"/>
      <point x="313" y="53" type="curve" smooth="yes"/>
      <point x="242" y="53"/>
      <point x="205" y="95"/>
      <point x="205" y="214" type="curve" smooth="yes"/>
      <point x="205" y="714" type="line"/>
      <point x="29" y="714" type="line"/>
      <point x="29" y="667" type="line"/>
      <point x="71" y="667"/>
      <point x="82" y="660"/>
      <point x="82" y="599" type="curve" smooth="yes"/>
      <point x="82" y="217" type="line" smooth="yes"/>
      <point x="82" y="54"/>
      <point x="171" y="-10"/>
      <point x="313" y="-10" type="curve" smooth="yes"/>
      <point x="478" y="-10"/>
      <point x="541" y="83"/>
      <point x="541" y="210" type="curve" smooth="yes"/>
      <point x="541" y="714" type="line"/>
    </contour>
  </outline>
</glyph>
<glyph name="uni054E" format="2">
  <advance width="658"/>
  <unicode hex="054E"/>
  <note>
uni054E
</note>
  <outline>
    <contour>
      <point x="331" y="714" type="line"/>
      <point x="331" y="667" type="line"/>
      <point x="367" y="667"/>
      <point x="383" y="659"/>
      <point x="383" y="599" type="curve" smooth="yes"/>
      <point x="383" y="326" type="line" smooth="yes"/>
      <point x="383" y="275"/>
      <point x="343" y="230"/>
      <point x="284" y="230" type="curve" smooth="yes"/>
      <point x="224" y="230"/>
      <point x="201" y="276"/>
      <point x="201" y="350" type="curve" smooth="yes"/>
      <point x="201" y="481" type="line"/>
      <point x="25" y="481" type="line"/>
      <point x="25" y="433" type="line"/>
      <point x="60" y="433"/>
      <point x="78" y="425"/>
      <point x="78" y="366" type="curve" smooth="yes"/>
      <point x="78" y="335" type="line" smooth="yes"/>
      <point x="78" y="210"/>
      <point x="139" y="153"/>
      <point x="240" y="153" type="curve" smooth="yes"/>
      <point x="296" y="153"/>
      <point x="348" y="178"/>
      <point x="383" y="231" type="curve"/>
      <point x="387" y="231" type="line"/>
      <point x="385" y="208"/>
      <point x="382" y="185"/>
      <point x="382" y="163" type="curve" smooth="yes"/>
      <point x="382" y="0" type="line"/>
      <point x="507" y="0" type="line"/>
      <point x="507" y="714" type="line"/>
    </contour>
    <contour>
      <point x="493" y="0" type="line"/>
      <point x="653" y="0" type="line"/>
      <point x="653" y="55" type="line"/>
      <point x="493" y="55" type="line"/>
    </contour>
  </outline>
</glyph>
<glyph name="uni054F" format="2">
  <advance width="466"/>
  <unicode hex="054F"/>
  <note>
uni054F
</note>
  <outline>
    <contour>
      <point x="222" y="-10" type="curve" smooth="yes"/>
      <point x="355" y="-10"/>
      <point x="437" y="69"/>
      <point x="437" y="196" type="curve" smooth="yes"/>
      <point x="437" y="298"/>
      <point x="392" y="359"/>
      <point x="282" y="414" type="curve" smooth="yes"/>
      <point x="172" y="469"/>
      <point x="146" y="506"/>
      <point x="146" y="569" type="curve" smooth="yes"/>
      <point x="146" y="634"/>
      <point x="179" y="669"/>
      <point x="230" y="669" type="curve" smooth="yes"/>
      <point x="292" y="669"/>
      <point x="326" y="605"/>
      <point x="326" y="536" type="curve"/>
      <point x="391" y="536"/>
      <point x="416" y="563"/>
      <point x="416" y="605" type="curve" smooth="yes"/>
      <point x="416" y="662"/>
      <point x="362" y="724"/>
      <point x="244" y="724" type="curve" smooth="yes"/>
      <point x="129" y="724"/>
      <point x="46" y="650"/>
      <point x="46" y="538" type="curve" smooth="yes"/>
      <point x="46" y="437"/>
      <point x="87" y="372"/>
      <point x="195" y="316" type="curve" smooth="yes"/>
      <point x="287" y="268"/>
      <point x="336" y="237"/>
      <point x="336" y="158" type="curve" smooth="yes"/>
      <point x="336" y="89"/>
      <point x="300" y="45"/>
      <point x="235" y="45" type="curve" smooth="yes"/>
      <point x="168" y="45"/>
      <point x="113" y="99"/>
      <point x="111" y="210" type="curve"/>
      <point x="67" y="210"/>
      <point x="29" y="185"/>
      <point x="29" y="127" type="curve" smooth="yes"/>
      <point x="29" y="68"/>
      <point x="67" y="-10"/>
    </contour>
  </outline>
</glyph>
<glyph name="uni0551" format="2">
  <advance width="526"/>
  <unicode hex="0551"/>
  <note>
uni0551
</note>
  <outline>
    <contour>
      <point x="319" y="390" type="curve"/>
      <point x="319" y="393" type="line"/>
      <point x="433" y="426"/>
      <point x="468" y="483"/>
      <point x="468" y="561" type="curve" smooth="yes"/>
      <point x="468" y="652"/>
      <point x="412" y="723"/>
      <point x="259" y="723" type="curve" smooth="yes"/>
      <point x="96" y="723"/>
      <point x="47" y="633"/>
      <point x="47" y="556" type="curve" smooth="yes"/>
      <point x="47" y="475"/>
      <point x="76" y="434"/>
      <point x="161" y="395" type="curve"/>
      <point x="161" y="390" type="line"/>
      <point x="31" y="358" type="line"/>
      <point x="51" y="270" type="line"/>
      <point x="234" y="360" type="line"/>
      <point x="317" y="331"/>
      <point x="364" y="288"/>
      <point x="364" y="190" type="curve" smooth="yes"/>
      <point x="364" y="95"/>
      <point x="326" y="46"/>
      <point x="247" y="46" type="curve" smooth="yes"/>
      <point x="165" y="46"/>
      <point x="134" y="92"/>
      <point x="134" y="211" type="curve"/>
      <point x="77" y="211"/>
      <point x="24" y="190"/>
      <point x="24" y="135" type="curve" smooth="yes"/>
      <point x="24" y="60"/>
      <point x="91" y="-10"/>
      <point x="250" y="-10" type="curve" smooth="yes"/>
      <point x="411" y="-10"/>
      <point x="494" y="73"/>
      <point x="494" y="188" type="curve" smooth="yes"/>
      <point x="494" y="294"/>
      <point x="446" y="357"/>
    </contour>
    <contour>
      <point x="167" y="556" type="curve" smooth="yes"/>
      <point x="167" y="619"/>
      <point x="190" y="667"/>
      <point x="258" y="667" type="curve" smooth="yes"/>
      <point x="319" y="667"/>
      <point x="347" y="627"/>
      <point x="347" y="561" type="curve" smooth="yes"/>
      <point x="347" y="497"/>
      <point x="326" y="449"/>
      <point x="252" y="419" type="curve"/>
      <point x="184" y="449"/>
      <point x="167" y="492"/>
    </contour>
  </outline>
</glyph>
<glyph name="uni0552" format="2">
  <advance width="528"/>
  <unicode hex="0552"/>
  <note>
uni0552
</note>
  <outline>
    <contour>
      <point x="197" y="511" type="line"/>
      <point x="197" y="456" type="line"/>
      <point x="230" y="456" type="line" smooth="yes"/>
      <point x="263" y="456"/>
      <point x="274" y="446"/>
      <point x="316" y="331" type="curve" smooth="yes"/>
      <point x="358" y="214"/>
      <point x="385" y="196"/>
      <point x="445" y="196" type="curve" smooth="yes"/>
      <point x="521" y="196" type="line"/>
      <point x="521" y="251" type="line"/>
      <point x="507" y="251" type="line" smooth="yes"/>
      <point x="469" y="251"/>
      <point x="460" y="260"/>
      <point x="416" y="376" type="curve" smooth="yes"/>
      <point x="374" y="492"/>
      <point x="354" y="511"/>
      <point x="256" y="511" type="curve" smooth="yes"/>
    </contour>
    <contour>
      <point x="204" y="115" type="curve" smooth="yes"/>
      <point x="204" y="714" type="line"/>
      <point x="29" y="714" type="line"/>
      <point x="29" y="667" type="line"/>
      <point x="71" y="667"/>
      <point x="81" y="660"/>
      <point x="81" y="599" type="curve" smooth="yes"/>
      <point x="81" y="0" type="line"/>
      <point x="257" y="0" type="line"/>
      <point x="257" y="47" type="line"/>
      <point x="222" y="47"/>
      <point x="204" y="55"/>
    </contour>
  </outline>
</glyph>
<glyph name="uni0553" format="2">
  <advance width="688"/>
  <unicode hex="0553"/>
  <note>
uni0553
</note>
  <outline>
    <contour>
      <point x="422" y="134" type="line" smooth="yes"/>
      <point x="592" y="134"/>
      <point x="655" y="244"/>
      <point x="655" y="369" type="curve" smooth="yes"/>
      <point x="655" y="503"/>
      <point x="582" y="590"/>
      <point x="436" y="590" type="curve" smooth="yes"/>
      <point x="401" y="590" type="line"/>
      <point x="401" y="714" type="line"/>
      <point x="234" y="714" type="line"/>
      <point x="234" y="667" type="line"/>
      <point x="274" y="667"/>
      <point x="287" y="659"/>
      <point x="287" y="602" type="curve" smooth="yes"/>
      <point x="287" y="590" type="line"/>
      <point x="252" y="590" type="line" smooth="yes"/>
      <point x="103" y="590"/>
      <point x="33" y="499"/>
      <point x="33" y="367" type="curve" smooth="yes"/>
      <point x="33" y="239"/>
      <point x="97" y="134"/>
      <point x="266" y="134" type="curve" smooth="yes"/>
      <point x="287" y="134" type="line"/>
      <point x="287" y="0" type="line"/>
      <point x="455" y="0" type="line"/>
      <point x="455" y="47" type="line"/>
      <point x="410" y="47"/>
      <point x="401" y="58"/>
      <point x="401" y="112" type="curve" smooth="yes"/>
      <point x="401" y="134" type="line"/>
    </contour>
    <contour>
      <point x="287" y="187" type="line"/>
      <point x="271" y="187" type="line" smooth="yes"/>
      <point x="184" y="187"/>
      <point x="147" y="240"/>
      <point x="147" y="365" type="curve" smooth="yes"/>
      <point x="147" y="479"/>
      <point x="184" y="537"/>
      <point x="263" y="537" type="curve" smooth="yes"/>
      <point x="287" y="537" type="line"/>
    </contour>
    <contour>
      <point x="401" y="537" type="line"/>
      <point x="425" y="537" type="line" smooth="yes"/>
      <point x="504" y="537"/>
      <point x="541" y="479"/>
      <point x="541" y="367" type="curve" smooth="yes"/>
      <point x="541" y="240"/>
      <point x="500" y="187"/>
      <point x="418" y="187" type="curve" smooth="yes"/>
      <point x="401" y="187" type="line"/>
    </contour>
  </outline>
</glyph>
<glyph name="uni0554" format="2">
  <advance width="523"/>
  <unicode hex="0554"/>
  <note>
uni0554
</note>
  <outline>
    <contour>
      <point x="80" y="0" type="line"/>
      <point x="203" y="0" type="line"/>
      <point x="203" y="345" type="line"/>
      <point x="272" y="345" type="line" smooth="yes"/>
      <point x="422" y="345"/>
      <point x="485" y="416"/>
      <point x="485" y="532" type="curve" smooth="yes"/>
      <point x="485" y="656"/>
      <point x="422" y="724"/>
      <point x="285" y="724" type="curve" smooth="yes"/>
      <point x="150" y="724"/>
      <point x="80" y="649"/>
      <point x="80" y="503" type="curve" smooth="yes"/>
    </contour>
    <contour>
      <point x="257" y="401" type="curve" smooth="yes"/>
      <point x="203" y="401" type="line"/>
      <point x="203" y="502" type="line" smooth="yes"/>
      <point x="203" y="630"/>
      <point x="226" y="668"/>
      <point x="282" y="668" type="curve" smooth="yes"/>
      <point x="338" y="668"/>
      <point x="361" y="627"/>
      <point x="361" y="536" type="curve" smooth="yes"/>
      <point x="361" y="446"/>
      <point x="324" y="401"/>
    </contour>
    <contour>
      <point x="10" y="204" type="line"/>
      <point x="478" y="204" type="line"/>
      <point x="478" y="259" type="line"/>
      <point x="10" y="259" type="line"/>
    </contour>
  </outline>
</glyph>
<glyph name="uni0555" format="2">
  <advance width="636"/>
  <unicode hex="0555"/>
  <note>
uni0555
</note>
  <anchor x="318" y="714" name="top"/>
  <outline>
    <contour>
      <point x="318" y="-10" type="curve" smooth="yes"/>
      <point x="493" y="-10"/>
      <point x="591" y="133"/>
      <point x="591" y="358" type="curve" smooth="yes"/>
      <point x="591" y="589"/>
      <point x="496" y="725"/>
      <point x="319" y="725" type="curve" smooth="yes"/>
      <point x="134" y="725"/>
      <point x="45" y="585"/>
      <point x="45" y="359" type="curve" smooth="yes"/>
      <point x="45" y="137"/>
      <point x="134" y="-10"/>
    </contour>
    <contour>
      <point x="319" y="49" type="curve" smooth="yes"/>
      <point x="218" y="49"/>
      <point x="175" y="164"/>
      <point x="175" y="358" type="curve" smooth="yes"/>
      <point x="175" y="555"/>
      <point x="216" y="666"/>
      <point x="320" y="666" type="curve" smooth="yes"/>
      <point x="424" y="666"/>
      <point x="462" y="555"/>
      <point x="462" y="358" type="curve" smooth="yes"/>
      <point x="462" y="162"/>
      <point x="420" y="49"/>
    </contour>
  </outline>
</glyph>
<glyph name="uni0556" format="2">
  <advance width="610"/>
  <unicode hex="0556"/>
  <note>
uni0556
</note>
  <outline>
    <contour>
      <point x="302" y="-10" type="curve" smooth="yes"/>
      <point x="512" y="-10"/>
      <point x="582" y="77"/>
      <point x="582" y="189" type="curve" smooth="yes"/>
      <point x="582" y="310"/>
      <point x="524" y="377"/>
      <point x="316" y="407" type="curve" smooth="yes"/>
      <point x="181" y="426"/>
      <point x="160" y="460"/>
      <point x="160" y="549" type="curve" smooth="yes"/>
      <point x="160" y="626"/>
      <point x="188" y="668"/>
      <point x="251" y="668" type="curve"/>
      <point x="251" y="724" type="line"/>
      <point x="125" y="724"/>
      <point x="41" y="649"/>
      <point x="41" y="549" type="curve" smooth="yes"/>
      <point x="41" y="434"/>
      <point x="88" y="382"/>
      <point x="266" y="356" type="curve" smooth="yes"/>
      <point x="428" y="332"/>
      <point x="464" y="294"/>
      <point x="464" y="183" type="curve" smooth="yes"/>
      <point x="464" y="91"/>
      <point x="426" y="46"/>
      <point x="287" y="46" type="curve" smooth="yes"/>
      <point x="163" y="46"/>
      <point x="112" y="96"/>
      <point x="112" y="216" type="curve"/>
      <point x="59" y="216"/>
      <point x="25" y="187"/>
      <point x="25" y="133" type="curve" smooth="yes"/>
      <point x="25" y="62"/>
      <point x="96" y="-10"/>
    </contour>
    <contour>
      <point x="251" y="724" type="line"/>
      <point x="251" y="5" type="line"/>
      <point x="362" y="5" type="line"/>
      <point x="362" y="724" type="line"/>
    </contour>
  </outline>
</glyph>
<glyph name="uni0559" format="2">
  <advance width="210"/>
  <unicode hex="0559"/>
  <note>
uni0559
</note>
  <outline>
    <contour>
      <point x="168" y="458" type="curve"/>
      <point x="168" y="562" type="line"/>
      <point x="133" y="564"/>
      <point x="113" y="586"/>
      <point x="113" y="626" type="curve" smooth="yes"/>
      <point x="113" y="664"/>
      <point x="133" y="695"/>
      <point x="174" y="717" type="curve"/>
      <point x="157" y="760" type="line"/>
      <point x="80" y="729"/>
      <point x="35" y="665"/>
      <point x="35" y="588" type="curve" smooth="yes"/>
      <point x="35" y="510"/>
      <point x="79" y="460"/>
    </contour>
  </outline>
</glyph>
<glyph name="uni055A" format="2">
  <advance width="210"/>
  <unicode hex="055A"/>
  <note>
uni055A
</note>
  <outline>
    <contour>
      <point x="41" y="760" type="curve"/>
      <point x="41" y="656" type="line"/>
      <point x="76" y="654"/>
      <point x="96" y="633"/>
      <point x="96" y="596" type="curve" smooth="yes"/>
      <point x="96" y="554"/>
      <point x="77" y="523"/>
      <point x="35" y="501" type="curve"/>
      <point x="52" y="458" type="line"/>
      <point x="130" y="490"/>
      <point x="174" y="553"/>
      <point x="174" y="631" type="curve" smooth="yes"/>
      <point x="174" y="708"/>
      <point x="131" y="758"/>
    </contour>
  </outline>
</glyph>
<glyph name="uni055B" format="2">
  <advance width="211"/>
  <unicode hex="055B"/>
  <note>
uni055B
</note>
  <outline>
    <contour>
      <point x="45" y="603" type="line"/>
      <point x="111" y="603" type="line"/>
      <point x="135" y="671"/>
      <point x="155" y="741"/>
      <point x="170" y="802" type="curve"/>
      <point x="163" y="814" type="line"/>
      <point x="78" y="814" type="line"/>
      <point x="75" y="787"/>
      <point x="67" y="740"/>
      <point x="59" y="698" type="curve" smooth="yes"/>
      <point x="45" y="621" type="line"/>
    </contour>
  </outline>
</glyph>
<glyph name="uni055C" format="2">
  <advance width="256"/>
  <unicode hex="055C"/>
  <note>
uni055C
</note>
  <outline>
    <contour>
      <point x="71" y="603" type="curve"/>
      <point x="150" y="603" type="line"/>
      <point x="150" y="615" type="line" smooth="yes"/>
      <point x="150" y="643"/>
      <point x="159" y="663"/>
      <point x="186" y="683" type="curve" smooth="yes"/>
      <point x="237" y="720"/>
      <point x="245" y="740"/>
      <point x="245" y="814" type="curve"/>
      <point x="166" y="814" type="line"/>
      <point x="166" y="794" type="line" smooth="yes"/>
      <point x="166" y="765"/>
      <point x="158" y="751"/>
      <point x="141" y="738" type="curve" smooth="yes"/>
      <point x="88" y="698"/>
      <point x="71" y="679"/>
    </contour>
  </outline>
</glyph>
<glyph name="uni055D" format="2">
  <advance width="211"/>
  <unicode hex="055D"/>
  <note>
uni055D
</note>
  <outline>
    <contour>
      <point x="166" y="603" type="line"/>
      <point x="165" y="620" type="line"/>
      <point x="151" y="698" type="line" smooth="yes"/>
      <point x="143" y="740"/>
      <point x="136" y="787"/>
      <point x="134" y="814" type="curve"/>
      <point x="48" y="814" type="line"/>
      <point x="40" y="802" type="line"/>
      <point x="56" y="741"/>
      <point x="75" y="671"/>
      <point x="100" y="603" type="curve"/>
    </contour>
  </outline>
</glyph>
<glyph name="uni055E" format="2">
  <advance width="406"/>
  <unicode hex="055E"/>
  <note>
uni055E
</note>
  <outline>
    <contour>
      <point x="69" y="595" type="curve"/>
      <point x="166" y="595" type="line"/>
      <point x="166" y="712"/>
      <point x="189" y="769"/>
      <point x="242" y="769" type="curve" smooth="yes"/>
      <point x="268" y="769"/>
      <point x="283" y="752"/>
      <point x="283" y="723" type="curve" smooth="yes"/>
      <point x="283" y="693"/>
      <point x="267" y="676"/>
      <point x="239" y="676" type="curve" smooth="yes"/>
      <point x="223" y="676"/>
      <point x="211" y="681"/>
      <point x="201" y="686" type="curve"/>
      <point x="201" y="643"/>
      <point x="234" y="617"/>
      <point x="282" y="617" type="curve" smooth="yes"/>
      <point x="343" y="617"/>
      <point x="381" y="656"/>
      <point x="381" y="717" type="curve" smooth="yes"/>
      <point x="381" y="783"/>
      <point x="333" y="827"/>
      <point x="251" y="827" type="curve" smooth="yes"/>
      <point x="144" y="827"/>
      <point x="69" y="735"/>
    </contour>
  </outline>
</glyph>
<glyph name="uni055F" format="2">
  <advance width="367"/>
  <unicode hex="055F"/>
  <note>
uni055F
</note>
  <outline>
    <contour>
      <point x="194" y="606" type="curve" smooth="yes"/>
      <point x="333" y="606" type="line"/>
      <point x="333" y="667" type="line"/>
      <point x="209" y="667" type="line" smooth="yes"/>
      <point x="154" y="667"/>
      <point x="133" y="686"/>
      <point x="133" y="722" type="curve" smooth="yes"/>
      <point x="133" y="753"/>
      <point x="151" y="771"/>
      <point x="181" y="771" type="curve" smooth="yes"/>
      <point x="198" y="771"/>
      <point x="218" y="766"/>
      <point x="229" y="760" type="curve"/>
      <point x="229" y="801"/>
      <point x="198" y="835"/>
      <point x="148" y="835" type="curve" smooth="yes"/>
      <point x="84" y="835"/>
      <point x="45" y="791"/>
      <point x="45" y="722" type="curve" smooth="yes"/>
      <point x="45" y="647"/>
      <point x="94" y="606"/>
    </contour>
  </outline>
</glyph>
<glyph name="uni0560" format="2">
  <advance width="785"/>
  <unicode hex="0560"/>
  <note>
uni0561
</note>
  <anchor x="395" y="492" name="top"/>
  <outline>
    <contour>
      <point x="246" y="0" type="line"/>
      <point x="246" y="45" type="line"/>
      <point x="205" y="45"/>
      <point x="197" y="53"/>
      <point x="197" y="114" type="curve" smooth="yes"/>
      <point x="197" y="272" type="line" smooth="yes"/>
      <point x="197" y="371"/>
      <point x="218" y="431"/>
      <point x="272" y="431" type="curve" smooth="yes"/>
      <point x="318" y="431"/>
      <point x="333" y="387"/>
      <point x="333" y="294" type="curve" smooth="yes"/>
      <point x="333" y="0" type="line"/>
      <point x="503" y="0" type="line"/>
      <point x="503" y="45" type="line"/>
      <point x="462" y="45"/>
      <point x="454" y="53"/>
      <point x="454" y="117" type="curve" smooth="yes"/>
      <point x="454" y="284" type="line" smooth="yes"/>
      <point x="454" y="379"/>
      <point x="475" y="431"/>
      <point x="529" y="431" type="curve" smooth="yes"/>
      <point x="575" y="431"/>
      <point x="592" y="383"/>
      <point x="592" y="294" type="curve" smooth="yes"/>
      <point x="592" y="0" type="line"/>
      <point x="762" y="0" type="line"/>
      <point x="762" y="47" type="line"/>
      <point x="719" y="47"/>
      <point x="712" y="54"/>
      <point x="712" y="118" type="curve" smooth="yes"/>
      <point x="712" y="316" type="line" smooth="yes"/>
      <point x="712" y="447"/>
      <point x="664" y="502"/>
      <point x="577" y="502" type="curve" smooth="yes"/>
      <point x="510" y="502"/>
      <point x="467" y="476"/>
      <point x="448" y="424" type="curve"/>
      <point x="445" y="424" type="line"/>
      <point x="428" y="481"/>
      <point x="390" y="502"/>
      <point x="329" y="502" type="curve" smooth="yes"/>
      <point x="255" y="502"/>
      <point x="219" y="470"/>
      <point x="198" y="426" type="curve"/>
      <point x="194" y="426" type="line"/>
      <point x="185" y="492" type="line"/>
      <point x="27" y="492" type="line"/>
      <point x="27" y="445" type="line"/>
      <point x="72" y="445"/>
      <point x="77" y="434"/>
      <point x="77" y="376" type="curve" smooth="yes"/>
      <point x="77" y="0" type="line"/>
    </contour>
  </outline>
</glyph>
<glyph name="uni0562" format="2">
  <advance width="521"/>
  <unicode hex="0562"/>
  <note>
uni0562
</note>
  <outline>
    <contour>
      <point x="197" y="-122" type="curve" smooth="yes"/>
      <point x="197" y="268" type="line" smooth="yes"/>
      <point x="197" y="364"/>
      <point x="223" y="428"/>
      <point x="273" y="428" type="curve" smooth="yes"/>
      <point x="321" y="428"/>
      <point x="335" y="378"/>
      <point x="335" y="291" type="curve" smooth="yes"/>
      <point x="335" y="213" type="line"/>
      <point x="498" y="213" type="line"/>
      <point x="498" y="260" type="line"/>
      <point x="462" y="260"/>
      <point x="455" y="267"/>
      <point x="455" y="306" type="curve" smooth="yes"/>
      <point x="455" y="329" type="line" smooth="yes"/>
      <point x="455" y="444"/>
      <point x="412" y="502"/>
      <point x="323" y="502" type="curve" smooth="yes"/>
      <point x="252" y="502"/>
      <point x="220" y="466"/>
      <point x="198" y="418" type="curve"/>
      <point x="195" y="418" type="line"/>
      <point x="186" y="492" type="line"/>
      <point x="24" y="492" type="line"/>
      <point x="24" y="445" type="line"/>
      <point x="68" y="445"/>
      <point x="76" y="436"/>
      <point x="76" y="377" type="curve" smooth="yes"/>
      <point x="76" y="-237" type="line"/>
      <point x="249" y="-237" type="line"/>
      <point x="249" y="-190" type="line"/>
      <point x="206" y="-190"/>
      <point x="197" y="-182"/>
    </contour>
    <contour>
      <point x="178" y="0" type="line"/>
      <point x="477" y="0" type="line"/>
      <point x="477" y="55" type="line"/>
      <point x="178" y="55" type="line"/>
    </contour>
  </outline>
</glyph>
<glyph name="uni0563" format="2">
  <advance width="545"/>
  <unicode hex="0563"/>
  <note>
uni0563
</note>
  <outline>
    <contour>
      <point x="343" y="492" type="line"/>
      <point x="328" y="420" type="line"/>
      <point x="322" y="420" type="line"/>
      <point x="296" y="476"/>
      <point x="259" y="502"/>
      <point x="201" y="502" type="curve" smooth="yes"/>
      <point x="98" y="502"/>
      <point x="38" y="413"/>
      <point x="38" y="246" type="curve" smooth="yes"/>
      <point x="38" y="77"/>
      <point x="99" y="-9"/>
      <point x="194" y="-9" type="curve" smooth="yes"/>
      <point x="255" y="-9"/>
      <point x="288" y="13"/>
      <point x="316" y="74" type="curve"/>
      <point x="322" y="74" type="line"/>
      <point x="317" y="20"/>
      <point x="317" y="-13"/>
      <point x="317" y="-49" type="curve" smooth="yes"/>
      <point x="317" y="-237" type="line"/>
      <point x="488" y="-237" type="line"/>
      <point x="488" y="-193" type="line"/>
      <point x="452" y="-193"/>
      <point x="438" y="-187"/>
      <point x="438" y="-134" type="curve" smooth="yes"/>
      <point x="438" y="492" type="line"/>
    </contour>
    <contour>
      <point x="238" y="54" type="curve" smooth="yes"/>
      <point x="177" y="54"/>
      <point x="161" y="136"/>
      <point x="161" y="245" type="curve" smooth="yes"/>
      <point x="161" y="355"/>
      <point x="176" y="439"/>
      <point x="238" y="439" type="curve" smooth="yes"/>
      <point x="294" y="439"/>
      <point x="317" y="378"/>
      <point x="317" y="246" type="curve" smooth="yes"/>
      <point x="317" y="109"/>
      <point x="291" y="54"/>
    </contour>
    <contour>
      <point x="405" y="0" type="line"/>
      <point x="539" y="0" type="line"/>
      <point x="539" y="55" type="line"/>
      <point x="405" y="55" type="line"/>
    </contour>
  </outline>
</glyph>
<glyph name="uni0565" format="2">
  <advance width="528"/>
  <unicode hex="0565"/>
  <note>
uni0565
</note>
  <outline>
    <contour>
      <point x="453" y="322" type="line"/>
      <point x="332" y="322" type="line"/>
      <point x="332" y="222" type="line" smooth="yes"/>
      <point x="332" y="128"/>
      <point x="310" y="63"/>
      <point x="257" y="63" type="curve" smooth="yes"/>
      <point x="211" y="63"/>
      <point x="194" y="116"/>
      <point x="194" y="210" type="curve" smooth="yes"/>
      <point x="194" y="760" type="line"/>
      <point x="23" y="760" type="line"/>
      <point x="23" y="713" type="line"/>
      <point x="67" y="713"/>
      <point x="73" y="706"/>
      <point x="73" y="641" type="curve" smooth="yes"/>
      <point x="73" y="187" type="line" smooth="yes"/>
      <point x="73" y="51"/>
      <point x="115" y="-10"/>
      <point x="210" y="-10" type="curve" smooth="yes"/>
      <point x="270" y="-10"/>
      <point x="307" y="20"/>
      <point x="331" y="72" type="curve"/>
      <point x="335" y="72" type="line"/>
      <point x="353" y="0" type="line"/>
      <point x="501" y="0" type="line"/>
      <point x="501" y="47" type="line"/>
      <point x="457" y="47"/>
      <point x="453" y="52"/>
      <point x="453" y="115" type="curve" smooth="yes"/>
    </contour>
    <contour>
      <point x="160" y="437" type="line"/>
      <point x="483" y="437" type="line"/>
      <point x="483" y="492" type="line"/>
      <point x="160" y="492" type="line"/>
    </contour>
  </outline>
</glyph>
<glyph name="uni0567" format="2">
  <advance width="453"/>
  <unicode hex="0567"/>
  <note>
uni0567
</note>
  <outline>
    <contour>
      <point x="415" y="437" type="line"/>
      <point x="415" y="492" type="line"/>
      <point x="194" y="492" type="line"/>
      <point x="194" y="760" type="line"/>
      <point x="23" y="760" type="line"/>
      <point x="23" y="713" type="line"/>
      <point x="67" y="713"/>
      <point x="73" y="706"/>
      <point x="73" y="641" type="curve" smooth="yes"/>
      <point x="73" y="10" type="line"/>
      <point x="82" y="0" type="line"/>
      <point x="90" y="0" type="line"/>
      <point x="131" y="21"/>
      <point x="185" y="31"/>
      <point x="233" y="31" type="curve" smooth="yes"/>
      <point x="285" y="31"/>
      <point x="312" y="13"/>
      <point x="312" y="-29" type="curve" smooth="yes"/>
      <point x="312" y="-84"/>
      <point x="275" y="-114"/>
      <point x="183" y="-114" type="curve"/>
      <point x="183" y="-144"/>
      <point x="217" y="-172"/>
      <point x="269" y="-172" type="curve" smooth="yes"/>
      <point x="351" y="-172"/>
      <point x="419" y="-121"/>
      <point x="419" y="-31" type="curve" smooth="yes"/>
      <point x="419" y="48"/>
      <point x="367" y="96"/>
      <point x="280" y="96" type="curve" smooth="yes"/>
      <point x="250" y="96"/>
      <point x="219" y="89"/>
      <point x="194" y="76" type="curve"/>
      <point x="194" y="437" type="line"/>
    </contour>
  </outline>
</glyph>
<glyph name="uni0568" format="2">
  <advance width="528"/>
  <unicode hex="0568"/>
  <note>
uni0568
</note>
  <outline>
    <contour>
      <point x="455" y="111" type="curve" smooth="yes"/>
      <point x="455" y="329" type="line" smooth="yes"/>
      <point x="455" y="444"/>
      <point x="412" y="502"/>
      <point x="323" y="502" type="curve" smooth="yes"/>
      <point x="252" y="502"/>
      <point x="220" y="466"/>
      <point x="198" y="418" type="curve"/>
      <point x="195" y="418" type="line"/>
      <point x="186" y="492" type="line"/>
      <point x="24" y="492" type="line"/>
      <point x="24" y="445" type="line"/>
      <point x="68" y="445"/>
      <point x="76" y="436"/>
      <point x="76" y="377" type="curve" smooth="yes"/>
      <point x="76" y="-237" type="line"/>
      <point x="197" y="-237" type="line"/>
      <point x="197" y="268" type="line" smooth="yes"/>
      <point x="197" y="364"/>
      <point x="223" y="428"/>
      <point x="273" y="428" type="curve" smooth="yes"/>
      <point x="320" y="428"/>
      <point x="334" y="378"/>
      <point x="334" y="291" type="curve" smooth="yes"/>
      <point x="334" y="0" type="line"/>
      <point x="505" y="0" type="line"/>
      <point x="505" y="47" type="line"/>
      <point x="465" y="47"/>
      <point x="455" y="55"/>
    </contour>
    <contour>
      <point x="178" y="-237" type="line"/>
      <point x="487" y="-237" type="line"/>
      <point x="487" y="-182" type="line"/>
      <point x="178" y="-182" type="line"/>
    </contour>
  </outline>
</glyph>
<glyph name="uni0569" format="2">
  <advance width="617"/>
  <unicode hex="0569"/>
  <note>
uni0569
</note>
  <outline>
    <contour>
      <point x="76" y="-237" type="line"/>
      <point x="247" y="-237" type="line"/>
      <point x="247" y="-193" type="line"/>
      <point x="211" y="-193"/>
      <point x="197" y="-187"/>
      <point x="197" y="-134" type="curve" smooth="yes"/>
      <point x="197" y="246" type="line" smooth="yes"/>
      <point x="197" y="374"/>
      <point x="230" y="439"/>
      <point x="316" y="439" type="curve" smooth="yes"/>
      <point x="404" y="439"/>
      <point x="431" y="378"/>
      <point x="431" y="245" type="curve" smooth="yes"/>
      <point x="431" y="83"/>
      <point x="423" y="45"/>
      <point x="392" y="45" type="curve" smooth="yes"/>
      <point x="368" y="45"/>
      <point x="351" y="73"/>
      <point x="351" y="133" type="curve" smooth="yes"/>
      <point x="351" y="196"/>
      <point x="369" y="227"/>
      <point x="403" y="227" type="curve" smooth="yes"/>
      <point x="452" y="227"/>
      <point x="527" y="214"/>
      <point x="592" y="188" type="curve"/>
      <point x="606" y="236" type="line"/>
      <point x="539" y="266"/>
      <point x="466" y="283"/>
      <point x="388" y="283" type="curve" smooth="yes"/>
      <point x="301" y="283"/>
      <point x="250" y="230"/>
      <point x="250" y="139" type="curve" smooth="yes"/>
      <point x="250" y="43"/>
      <point x="292" y="-10"/>
      <point x="395" y="-10" type="curve" smooth="yes"/>
      <point x="501" y="-10"/>
      <point x="550" y="74"/>
      <point x="550" y="245" type="curve" smooth="yes"/>
      <point x="550" y="412"/>
      <point x="470" y="502"/>
      <point x="344" y="502" type="curve" smooth="yes"/>
      <point x="270" y="502"/>
      <point x="224" y="475"/>
      <point x="192" y="415" type="curve"/>
      <point x="185" y="415" type="line"/>
      <point x="170" y="492" type="line"/>
      <point x="24" y="492" type="line"/>
      <point x="24" y="445" type="line"/>
      <point x="69" y="445"/>
      <point x="76" y="437"/>
      <point x="76" y="386" type="curve" smooth="yes"/>
    </contour>
  </outline>
</glyph>
<glyph name="uni056A" format="2">
  <advance width="555"/>
  <unicode hex="056A"/>
  <note>
uni056A
</note>
  <outline>
    <contour>
      <point x="331" y="492" type="line"/>
      <point x="236" y="492" type="line" smooth="yes"/>
      <point x="122" y="492"/>
      <point x="38" y="421"/>
      <point x="38" y="251" type="curve" smooth="yes"/>
      <point x="38" y="82"/>
      <point x="116" y="-10"/>
      <point x="245" y="-10" type="curve" smooth="yes"/>
      <point x="388" y="-10"/>
      <point x="450" y="85"/>
      <point x="450" y="250" type="curve" smooth="yes"/>
      <point x="450" y="760" type="line"/>
      <point x="281" y="760" type="line"/>
      <point x="281" y="713" type="line"/>
      <point x="316" y="713"/>
      <point x="331" y="707"/>
      <point x="331" y="655" type="curve" smooth="yes"/>
    </contour>
    <contour>
      <point x="261" y="437" type="curve" smooth="yes"/>
      <point x="330" y="437" type="line"/>
      <point x="330" y="244" type="line" smooth="yes"/>
      <point x="330" y="122"/>
      <point x="311" y="46"/>
      <point x="248" y="46" type="curve" smooth="yes"/>
      <point x="186" y="46"/>
      <point x="160" y="113"/>
      <point x="160" y="251" type="curve" smooth="yes"/>
      <point x="160" y="392"/>
      <point x="200" y="437"/>
    </contour>
    <contour>
      <point x="432" y="492" type="line"/>
      <point x="432" y="437" type="line"/>
      <point x="550" y="437" type="line"/>
      <point x="550" y="492" type="line"/>
    </contour>
  </outline>
</glyph>
<glyph name="uni056B" format="2">
  <advance width="528"/>
  <unicode hex="056B"/>
  <note>
uni056B
</note>
  <outline>
    <contour>
      <point x="505" y="47" type="line"/>
      <point x="462" y="47"/>
      <point x="455" y="55"/>
      <point x="455" y="119" type="curve" smooth="yes"/>
      <point x="455" y="313" type="line" smooth="yes"/>
      <point x="455" y="444"/>
      <point x="412" y="502"/>
      <point x="323" y="502" type="curve" smooth="yes"/>
      <point x="252" y="502"/>
      <point x="220" y="464"/>
      <point x="198" y="416" type="curve"/>
      <point x="194" y="416" type="line"/>
      <point x="196" y="441"/>
      <point x="197" y="467"/>
      <point x="197" y="492" type="curve" smooth="yes"/>
      <point x="197" y="760" type="line"/>
      <point x="24" y="760" type="line"/>
      <point x="24" y="713" type="line"/>
      <point x="68" y="713"/>
      <point x="76" y="704"/>
      <point x="76" y="645" type="curve" smooth="yes"/>
      <point x="76" y="-237" type="line"/>
      <point x="249" y="-237" type="line"/>
      <point x="249" y="-190" type="line"/>
      <point x="206" y="-190"/>
      <point x="197" y="-182"/>
      <point x="197" y="-122" type="curve" smooth="yes"/>
      <point x="197" y="268" type="line" smooth="yes"/>
      <point x="197" y="365"/>
      <point x="223" y="428"/>
      <point x="273" y="428" type="curve" smooth="yes"/>
      <point x="321" y="428"/>
      <point x="334" y="378"/>
      <point x="334" y="291" type="curve" smooth="yes"/>
      <point x="334" y="0" type="line"/>
      <point x="505" y="0" type="line"/>
    </contour>
  </outline>
</glyph>
<glyph name="uni056C" format="2">
  <advance width="304"/>
  <unicode hex="056C"/>
  <note>
uni056C
</note>
  <outline>
    <contour>
      <point x="323" y="-126" type="line"/>
      <point x="277" y="-126" type="line"/>
      <point x="277" y="-175"/>
      <point x="270" y="-182"/>
      <point x="233" y="-182" type="curve" smooth="yes"/>
      <point x="197" y="-182" type="line"/>
      <point x="197" y="492" type="line"/>
      <point x="25" y="492" type="line"/>
      <point x="25" y="445" type="line"/>
      <point x="35" y="445" type="line" smooth="yes"/>
      <point x="70" y="445"/>
      <point x="76" y="439"/>
      <point x="76" y="398" type="curve" smooth="yes"/>
      <point x="76" y="-237" type="line"/>
      <point x="323" y="-237" type="line"/>
    </contour>
  </outline>
</glyph>
<glyph name="uni056D" format="2">
  <advance width="790"/>
  <unicode hex="056D"/>
  <note>
uni056D
</note>
  <outline>
    <contour>
      <point x="714" y="115" type="curve" smooth="yes"/>
      <point x="714" y="492" type="line"/>
      <point x="544" y="492" type="line"/>
      <point x="544" y="445" type="line"/>
      <point x="581" y="445"/>
      <point x="593" y="437"/>
      <point x="593" y="374" type="curve" smooth="yes"/>
      <point x="593" y="222" type="line" smooth="yes"/>
      <point x="593" y="128"/>
      <point x="572" y="63"/>
      <point x="519" y="63" type="curve" smooth="yes"/>
      <point x="473" y="63"/>
      <point x="456" y="116"/>
      <point x="456" y="210" type="curve" smooth="yes"/>
      <point x="456" y="313" type="line" smooth="yes"/>
      <point x="456" y="444"/>
      <point x="412" y="502"/>
      <point x="323" y="502" type="curve" smooth="yes"/>
      <point x="252" y="502"/>
      <point x="220" y="462"/>
      <point x="198" y="416" type="curve"/>
      <point x="194" y="416" type="line"/>
      <point x="196" y="439"/>
      <point x="197" y="467"/>
      <point x="197" y="492" type="curve" smooth="yes"/>
      <point x="197" y="760" type="line"/>
      <point x="24" y="760" type="line"/>
      <point x="24" y="713" type="line"/>
      <point x="68" y="713"/>
      <point x="76" y="704"/>
      <point x="76" y="645" type="curve" smooth="yes"/>
      <point x="76" y="-237" type="line"/>
      <point x="249" y="-237" type="line"/>
      <point x="249" y="-190" type="line"/>
      <point x="206" y="-190"/>
      <point x="197" y="-182"/>
      <point x="197" y="-122" type="curve" smooth="yes"/>
      <point x="197" y="268" type="line" smooth="yes"/>
      <point x="197" y="365"/>
      <point x="223" y="428"/>
      <point x="273" y="428" type="curve" smooth="yes"/>
      <point x="321" y="428"/>
      <point x="335" y="378"/>
      <point x="335" y="291" type="curve" smooth="yes"/>
      <point x="335" y="187" type="line" smooth="yes"/>
      <point x="335" y="51"/>
      <point x="377" y="-10"/>
      <point x="472" y="-10" type="curve" smooth="yes"/>
      <point x="532" y="-10"/>
      <point x="569" y="20"/>
      <point x="593" y="72" type="curve"/>
      <point x="597" y="72" type="line"/>
      <point x="614" y="0" type="line"/>
      <point x="764" y="0" type="line"/>
      <point x="764" y="47" type="line"/>
      <point x="719" y="47"/>
      <point x="714" y="52"/>
    </contour>
  </outline>
</glyph>
<glyph name="uni056E" format="2">
  <advance width="493"/>
  <unicode hex="056E"/>
  <note>
uni056E
</note>
  <outline>
    <contour>
      <point x="243" y="-10" type="curve" smooth="yes"/>
      <point x="388" y="-10"/>
      <point x="450" y="85"/>
      <point x="450" y="250" type="curve" smooth="yes"/>
      <point x="450" y="313"/>
      <point x="437" y="373"/>
      <point x="401" y="437" type="curve"/>
      <point x="479" y="437" type="line"/>
      <point x="479" y="492" type="line"/>
      <point x="238" y="492" type="line" smooth="yes"/>
      <point x="124" y="492"/>
      <point x="38" y="410"/>
      <point x="38" y="237" type="curve" smooth="yes"/>
      <point x="38" y="82"/>
      <point x="114" y="-10"/>
    </contour>
    <contour>
      <point x="243" y="46" type="curve" smooth="yes"/>
      <point x="186" y="46"/>
      <point x="161" y="113"/>
      <point x="161" y="237" type="curve" smooth="yes"/>
      <point x="161" y="392"/>
      <point x="200" y="437"/>
      <point x="256" y="437" type="curve" smooth="yes"/>
      <point x="281" y="437" type="line"/>
      <point x="320" y="372"/>
      <point x="331" y="310"/>
      <point x="331" y="244" type="curve" smooth="yes"/>
      <point x="331" y="122"/>
      <point x="310" y="46"/>
    </contour>
    <contour>
      <point x="259" y="482" type="curve"/>
      <point x="377" y="482" type="line"/>
      <point x="357" y="504"/>
      <point x="333" y="537"/>
      <point x="310" y="573" type="curve" smooth="yes"/>
      <point x="281" y="619"/>
      <point x="275" y="642"/>
      <point x="275" y="666" type="curve" smooth="yes"/>
      <point x="275" y="689"/>
      <point x="284" y="708"/>
      <point x="313" y="723" type="curve"/>
      <point x="293" y="750"/>
      <point x="264" y="767"/>
      <point x="230" y="767" type="curve" smooth="yes"/>
      <point x="183" y="767"/>
      <point x="148" y="735"/>
      <point x="148" y="686" type="curve" smooth="yes"/>
      <point x="148" y="660"/>
      <point x="154" y="632"/>
      <point x="187" y="581" type="curve" smooth="yes"/>
      <point x="213" y="540"/>
      <point x="239" y="507"/>
    </contour>
  </outline>
</glyph>
<glyph name="uni056F" format="2">
  <advance width="528"/>
  <unicode hex="056F"/>
  <note>
uni056F
</note>
  <outline>
    <contour>
      <point x="332" y="-237" type="line"/>
      <point x="501" y="-237" type="line"/>
      <point x="501" y="-190" type="line"/>
      <point x="457" y="-190"/>
      <point x="453" y="-185"/>
      <point x="453" y="-122" type="curve" smooth="yes"/>
      <point x="453" y="492" type="line"/>
      <point x="282" y="492" type="line"/>
      <point x="282" y="445" type="line"/>
      <point x="320" y="445"/>
      <point x="332" y="437"/>
      <point x="332" y="374" type="curve" smooth="yes"/>
      <point x="332" y="222" type="line" smooth="yes"/>
      <point x="332" y="128"/>
      <point x="309" y="60"/>
      <point x="256" y="60" type="curve" smooth="yes"/>
      <point x="210" y="60"/>
      <point x="194" y="116"/>
      <point x="194" y="210" type="curve" smooth="yes"/>
      <point x="194" y="760" type="line"/>
      <point x="23" y="760" type="line"/>
      <point x="23" y="713" type="line"/>
      <point x="67" y="713"/>
      <point x="73" y="706"/>
      <point x="73" y="641" type="curve" smooth="yes"/>
      <point x="73" y="187" type="line" smooth="yes"/>
      <point x="73" y="51"/>
      <point x="115" y="-10"/>
      <point x="210" y="-10" type="curve" smooth="yes"/>
      <point x="270" y="-10"/>
      <point x="307" y="20"/>
      <point x="331" y="72" type="curve"/>
      <point x="335" y="72" type="line"/>
      <point x="333" y="49"/>
      <point x="332" y="23"/>
      <point x="332" y="1" type="curve" smooth="yes"/>
    </contour>
  </outline>
</glyph>
<glyph name="uni0570" format="2">
  <advance width="486"/>
  <unicode hex="0570"/>
  <note>
uni0570
</note>
  <outline>
    <contour>
      <point x="159" y="173" type="line"/>
      <point x="160" y="235"/>
      <point x="185" y="288"/>
      <point x="235" y="288" type="curve" smooth="yes"/>
      <point x="282" y="288"/>
      <point x="296" y="235"/>
      <point x="296" y="152" type="curve" smooth="yes"/>
      <point x="296" y="0" type="line"/>
      <point x="466" y="0" type="line"/>
      <point x="466" y="47" type="line"/>
      <point x="424" y="47"/>
      <point x="417" y="55"/>
      <point x="417" y="119" type="curve" smooth="yes"/>
      <point x="417" y="170" type="line" smooth="yes"/>
      <point x="417" y="301"/>
      <point x="374" y="361"/>
      <point x="284" y="361" type="curve" smooth="yes"/>
      <point x="216" y="361"/>
      <point x="181" y="325"/>
      <point x="159" y="277" type="curve"/>
      <point x="155" y="277" type="line"/>
      <point x="167" y="579"/>
      <point x="212" y="710"/>
      <point x="289" y="710" type="curve" smooth="yes"/>
      <point x="333" y="710"/>
      <point x="353" y="678"/>
      <point x="353" y="588" type="curve"/>
      <point x="420" y="588"/>
      <point x="454" y="614"/>
      <point x="454" y="661" type="curve" smooth="yes"/>
      <point x="454" y="721"/>
      <point x="400" y="766"/>
      <point x="308" y="766" type="curve" smooth="yes"/>
      <point x="132" y="766"/>
      <point x="34" y="595"/>
      <point x="34" y="206" type="curve"/>
    </contour>
  </outline>
</glyph>
<glyph name="uni0571" format="2">
  <advance width="504"/>
  <unicode hex="0571"/>
  <note>
uni0571
</note>
  <outline>
    <contour>
      <point x="177" y="-9" type="curve" smooth="yes"/>
      <point x="266" y="-9"/>
      <point x="310" y="39"/>
      <point x="349" y="120" type="curve"/>
      <point x="323" y="149" type="line"/>
      <point x="285" y="89"/>
      <point x="260" y="62"/>
      <point x="217" y="62" type="curve" smooth="yes"/>
      <point x="178" y="62"/>
      <point x="153" y="92"/>
      <point x="153" y="170" type="curve" smooth="yes"/>
      <point x="153" y="272"/>
      <point x="184" y="336"/>
      <point x="307" y="435" type="curve" smooth="yes"/>
      <point x="449" y="549"/>
      <point x="459" y="557"/>
      <point x="459" y="594" type="curve" smooth="yes"/>
      <point x="459" y="631"/>
      <point x="444" y="645"/>
      <point x="314" y="672" type="curve" smooth="yes"/>
      <point x="205" y="695"/>
      <point x="185" y="719"/>
      <point x="185" y="773" type="curve"/>
      <point x="120" y="773"/>
      <point x="83" y="750"/>
      <point x="83" y="703" type="curve" smooth="yes"/>
      <point x="83" y="643"/>
      <point x="119" y="619"/>
      <point x="256" y="601" type="curve" smooth="yes"/>
      <point x="352" y="588"/>
      <point x="355" y="581"/>
      <point x="355" y="566" type="curve" smooth="yes"/>
      <point x="355" y="552"/>
      <point x="349" y="544"/>
      <point x="247" y="465" type="curve" smooth="yes"/>
      <point x="65" y="325"/>
      <point x="32" y="263"/>
      <point x="32" y="160" type="curve" smooth="yes"/>
      <point x="32" y="61"/>
      <point x="77" y="-9"/>
    </contour>
    <contour>
      <point x="374" y="521" type="line"/>
      <point x="263" y="466" type="line"/>
      <point x="325" y="78" type="line"/>
      <point x="328" y="78" type="line"/>
      <point x="341" y="0" type="line"/>
      <point x="491" y="0" type="line"/>
      <point x="491" y="47" type="line"/>
      <point x="461" y="47"/>
      <point x="452" y="51"/>
      <point x="444" y="101" type="curve" smooth="yes"/>
    </contour>
  </outline>
</glyph>
<glyph name="uni0572" format="2">
  <advance width="542"/>
  <unicode hex="0572"/>
  <note>
uni0572
</note>
  <outline>
    <contour>
      <point x="323" y="502" type="curve" smooth="yes"/>
      <point x="252" y="502"/>
      <point x="220" y="466"/>
      <point x="198" y="418" type="curve"/>
      <point x="195" y="418" type="line"/>
      <point x="186" y="492" type="line"/>
      <point x="24" y="492" type="line"/>
      <point x="24" y="445" type="line"/>
      <point x="68" y="445"/>
      <point x="76" y="436"/>
      <point x="76" y="377" type="curve" smooth="yes"/>
      <point x="76" y="0" type="line"/>
      <point x="249" y="0" type="line"/>
      <point x="249" y="45" type="line"/>
      <point x="206" y="45"/>
      <point x="197" y="53"/>
      <point x="197" y="113" type="curve" smooth="yes"/>
      <point x="197" y="268" type="line" smooth="yes"/>
      <point x="197" y="364"/>
      <point x="223" y="428"/>
      <point x="273" y="428" type="curve" smooth="yes"/>
      <point x="320" y="428"/>
      <point x="334" y="378"/>
      <point x="334" y="291" type="curve" smooth="yes"/>
      <point x="334" y="-237" type="line"/>
      <point x="455" y="-237" type="line"/>
      <point x="455" y="313" type="line" smooth="yes"/>
      <point x="455" y="445"/>
      <point x="412" y="502"/>
    </contour>
    <contour>
      <point x="372" y="-237" type="line"/>
      <point x="560" y="-237" type="line"/>
      <point x="560" y="-182" type="line"/>
      <point x="372" y="-182" type="line"/>
    </contour>
  </outline>
</glyph>
<glyph name="uni0573" format="2">
  <advance width="502"/>
  <unicode hex="0573"/>
  <note>
uni0573
</note>
  <outline>
    <contour>
      <point x="186" y="-10" type="curve" smooth="yes"/>
      <point x="246" y="-10"/>
      <point x="284" y="20"/>
      <point x="308" y="72" type="curve"/>
      <point x="312" y="72" type="line"/>
      <point x="330" y="0" type="line"/>
      <point x="479" y="0" type="line"/>
      <point x="479" y="47" type="line"/>
      <point x="435" y="47"/>
      <point x="430" y="52"/>
      <point x="430" y="115" type="curve" smooth="yes"/>
      <point x="430" y="232" type="line" smooth="yes"/>
      <point x="430" y="438"/>
      <point x="326" y="502"/>
      <point x="15" y="502" type="curve"/>
      <point x="15" y="447" type="line"/>
      <point x="257" y="447"/>
      <point x="309" y="374"/>
      <point x="309" y="229" type="curve" smooth="yes"/>
      <point x="309" y="121"/>
      <point x="285" y="60"/>
      <point x="232" y="60" type="curve" smooth="yes"/>
      <point x="187" y="60"/>
      <point x="168" y="102"/>
      <point x="168" y="209" type="curve" smooth="yes"/>
      <point x="168" y="531"/>
      <point x="248" y="710"/>
      <point x="330" y="710" type="curve" smooth="yes"/>
      <point x="368" y="710"/>
      <point x="387" y="680"/>
      <point x="388" y="590" type="curve"/>
      <point x="454" y="590"/>
      <point x="489" y="614"/>
      <point x="489" y="661" type="curve" smooth="yes"/>
      <point x="489" y="721"/>
      <point x="434" y="766"/>
      <point x="343" y="766" type="curve" smooth="yes"/>
      <point x="178" y="766"/>
      <point x="47" y="547"/>
      <point x="47" y="207" type="curve" smooth="yes"/>
      <point x="47" y="50"/>
      <point x="91" y="-10"/>
    </contour>
  </outline>
</glyph>
<glyph name="uni0574" format="2">
  <advance width="528"/>
  <unicode hex="0574"/>
  <note>
uni0574
</note>
  <outline>
    <contour>
      <point x="453" y="115" type="curve" smooth="yes"/>
      <point x="453" y="413" type="line" smooth="yes"/>
      <point x="453" y="471"/>
      <point x="440" y="506"/>
      <point x="417" y="538" type="curve" smooth="yes"/>
      <point x="389" y="576"/>
      <point x="377" y="605"/>
      <point x="377" y="643" type="curve" smooth="yes"/>
      <point x="377" y="683"/>
      <point x="386" y="707"/>
      <point x="410" y="707" type="curve" smooth="yes"/>
      <point x="436" y="707"/>
      <point x="445" y="676"/>
      <point x="445" y="595" type="curve"/>
      <point x="509" y="595"/>
      <point x="546" y="618"/>
      <point x="546" y="661" type="curve" smooth="yes"/>
      <point x="546" y="717"/>
      <point x="508" y="762"/>
      <point x="405" y="762" type="curve" smooth="yes"/>
      <point x="326" y="762"/>
      <point x="257" y="729"/>
      <point x="257" y="631" type="curve" smooth="yes"/>
      <point x="257" y="592"/>
      <point x="269" y="551"/>
      <point x="299" y="511" type="curve" smooth="yes"/>
      <point x="322" y="480"/>
      <point x="332" y="444"/>
      <point x="332" y="406" type="curve" smooth="yes"/>
      <point x="332" y="222" type="line" smooth="yes"/>
      <point x="332" y="128"/>
      <point x="309" y="63"/>
      <point x="256" y="63" type="curve" smooth="yes"/>
      <point x="210" y="63"/>
      <point x="194" y="116"/>
      <point x="194" y="210" type="curve" smooth="yes"/>
      <point x="194" y="492" type="line"/>
      <point x="23" y="492" type="line"/>
      <point x="23" y="445" type="line"/>
      <point x="67" y="445"/>
      <point x="73" y="438"/>
      <point x="73" y="373" type="curve" smooth="yes"/>
      <point x="73" y="187" type="line" smooth="yes"/>
      <point x="73" y="51"/>
      <point x="115" y="-10"/>
      <point x="210" y="-10" type="curve" smooth="yes"/>
      <point x="270" y="-10"/>
      <point x="307" y="20"/>
      <point x="331" y="72" type="curve"/>
      <point x="335" y="72" type="line"/>
      <point x="352" y="0" type="line"/>
      <point x="501" y="0" type="line"/>
      <point x="501" y="47" type="line"/>
      <point x="457" y="47"/>
      <point x="453" y="52"/>
    </contour>
  </outline>
</glyph>
<glyph name="uni0575" format="2">
  <advance width="266"/>
  <unicode hex="0575"/>
  <note>
uni0575
</note>
  <outline>
    <contour>
      <point x="73" y="134" type="line" smooth="yes"/>
      <point x="73" y="22"/>
      <point x="106" y="-18"/>
      <point x="106" y="-101" type="curve" smooth="yes"/>
      <point x="106" y="-154"/>
      <point x="84" y="-184"/>
      <point x="34" y="-184" type="curve" smooth="yes"/>
      <point x="28" y="-184" type="line"/>
      <point x="28" y="-237" type="line"/>
      <point x="43" y="-237" type="line" smooth="yes"/>
      <point x="175" y="-237"/>
      <point x="227" y="-188"/>
      <point x="227" y="-97" type="curve" smooth="yes"/>
      <point x="227" y="-10"/>
      <point x="194" y="26"/>
      <point x="194" y="133" type="curve" smooth="yes"/>
      <point x="194" y="492" type="line"/>
      <point x="21" y="492" type="line"/>
      <point x="21" y="445" type="line"/>
      <point x="30" y="445" type="line" smooth="yes"/>
      <point x="67" y="445"/>
      <point x="73" y="434"/>
      <point x="73" y="373" type="curve" smooth="yes"/>
    </contour>
  </outline>
</glyph>
<glyph name="uni0576" format="2">
  <advance width="518"/>
  <unicode hex="0576"/>
  <note>
uni0576
</note>
  <outline>
    <contour>
      <point x="187" y="-10" type="curve" smooth="yes"/>
      <point x="250" y="-10"/>
      <point x="295" y="20"/>
      <point x="320" y="72" type="curve"/>
      <point x="324" y="72" type="line"/>
      <point x="342" y="0" type="line"/>
      <point x="491" y="0" type="line"/>
      <point x="491" y="47" type="line"/>
      <point x="447" y="47"/>
      <point x="442" y="52"/>
      <point x="442" y="115" type="curve" smooth="yes"/>
      <point x="442" y="492" type="line"/>
      <point x="279" y="492" type="line"/>
      <point x="279" y="447" type="line"/>
      <point x="313" y="447"/>
      <point x="321" y="440"/>
      <point x="321" y="377" type="curve" smooth="yes"/>
      <point x="321" y="222" type="line" smooth="yes"/>
      <point x="321" y="124"/>
      <point x="291" y="63"/>
      <point x="232" y="63" type="curve" smooth="yes"/>
      <point x="179" y="63"/>
      <point x="157" y="109"/>
      <point x="157" y="210" type="curve" smooth="yes"/>
      <point x="157" y="320"/>
      <point x="176" y="415"/>
      <point x="220" y="527" type="curve"/>
      <point x="147" y="541" type="line"/>
      <point x="72" y="418"/>
      <point x="36" y="304"/>
      <point x="36" y="187" type="curve" smooth="yes"/>
      <point x="36" y="51"/>
      <point x="84" y="-10"/>
    </contour>
    <contour>
      <point x="220" y="542" type="line"/>
      <point x="152" y="555"/>
      <point x="136" y="583"/>
      <point x="136" y="630" type="curve" smooth="yes"/>
      <point x="136" y="679"/>
      <point x="152" y="707"/>
      <point x="251" y="707" type="curve"/>
      <point x="249" y="744"/>
      <point x="222" y="767"/>
      <point x="160" y="767" type="curve" smooth="yes"/>
      <point x="78" y="767"/>
      <point x="32" y="711"/>
      <point x="32" y="642" type="curve" smooth="yes"/>
      <point x="32" y="573"/>
      <point x="71" y="524"/>
      <point x="139" y="508" type="curve"/>
      <point x="220" y="527" type="line"/>
    </contour>
  </outline>
</glyph>
<glyph name="uni0577" format="2">
  <advance width="431"/>
  <unicode hex="0577"/>
  <note>
uni0577
</note>
  <outline>
    <contour>
      <point x="193" y="502" type="curve" smooth="yes"/>
      <point x="74" y="502"/>
      <point x="19" y="436"/>
      <point x="19" y="373" type="curve" smooth="yes"/>
      <point x="19" y="324"/>
      <point x="44" y="306"/>
      <point x="114" y="306" type="curve"/>
      <point x="114" y="402"/>
      <point x="141" y="446"/>
      <point x="189" y="446" type="curve" smooth="yes"/>
      <point x="239" y="446"/>
      <point x="263" y="410"/>
      <point x="263" y="317" type="curve" smooth="yes"/>
      <point x="263" y="233"/>
      <point x="242" y="158"/>
      <point x="138" y="25" type="curve" smooth="yes"/>
      <point x="48" y="-90"/>
      <point x="29" y="-128"/>
      <point x="29" y="-165" type="curve" smooth="yes"/>
      <point x="29" y="-222"/>
      <point x="55" y="-237"/>
      <point x="113" y="-237" type="curve" smooth="yes"/>
      <point x="377" y="-237" type="line"/>
      <point x="377" y="-175" type="line"/>
      <point x="186" y="-175" type="line" smooth="yes"/>
      <point x="156" y="-175"/>
      <point x="148" y="-164"/>
      <point x="148" y="-146" type="curve" smooth="yes"/>
      <point x="148" y="-107"/>
      <point x="164" y="-80"/>
      <point x="246" y="21" type="curve" smooth="yes"/>
      <point x="350" y="150"/>
      <point x="385" y="224"/>
      <point x="385" y="317" type="curve" smooth="yes"/>
      <point x="385" y="439"/>
      <point x="317" y="502"/>
    </contour>
  </outline>
</glyph>
<glyph name="uni0578" format="2">
  <advance width="528"/>
  <unicode hex="0578"/>
  <note>
uni0578
</note>
  <anchor x="266" y="492" name="top"/>
  <outline>
    <contour>
      <point x="505" y="47" type="line"/>
      <point x="462" y="47"/>
      <point x="455" y="55"/>
      <point x="455" y="119" type="curve" smooth="yes"/>
      <point x="455" y="313" type="line" smooth="yes"/>
      <point x="455" y="444"/>
      <point x="412" y="502"/>
      <point x="323" y="502" type="curve" smooth="yes"/>
      <point x="252" y="502"/>
      <point x="220" y="466"/>
      <point x="198" y="418" type="curve"/>
      <point x="195" y="418" type="line"/>
      <point x="186" y="492" type="line"/>
      <point x="24" y="492" type="line"/>
      <point x="24" y="445" type="line"/>
      <point x="68" y="445"/>
      <point x="76" y="436"/>
      <point x="76" y="377" type="curve" smooth="yes"/>
      <point x="76" y="0" type="line"/>
      <point x="249" y="0" type="line"/>
      <point x="249" y="47" type="line"/>
      <point x="206" y="47"/>
      <point x="197" y="55"/>
      <point x="197" y="116" type="curve" smooth="yes"/>
      <point x="197" y="268" type="line" smooth="yes"/>
      <point x="197" y="364"/>
      <point x="223" y="428"/>
      <point x="273" y="428" type="curve" smooth="yes"/>
      <point x="321" y="428"/>
      <point x="334" y="378"/>
      <point x="334" y="291" type="curve" smooth="yes"/>
      <point x="334" y="0" type="line"/>
      <point x="505" y="0" type="line"/>
    </contour>
  </outline>
</glyph>
<glyph name="uni0579" format="2">
  <advance width="379"/>
  <unicode hex="0579"/>
  <note>
uni0579
</note>
  <outline>
    <contour>
      <point x="314" y="270" type="line"/>
      <point x="181" y="275" type="line"/>
      <point x="39" y="-21" type="line" smooth="yes"/>
      <point x="9" y="-83"/>
      <point x="-7" y="-130"/>
      <point x="-7" y="-165" type="curve" smooth="yes"/>
      <point x="-7" y="-217"/>
      <point x="23" y="-237"/>
      <point x="81" y="-237" type="curve" smooth="yes"/>
      <point x="345" y="-237" type="line"/>
      <point x="345" y="-175" type="line"/>
      <point x="168" y="-175" type="line" smooth="yes"/>
      <point x="138" y="-175"/>
      <point x="126" y="-164"/>
      <point x="126" y="-146" type="curve" smooth="yes"/>
      <point x="126" y="-121"/>
      <point x="137" y="-100"/>
      <point x="163" y="-46" type="curve" smooth="yes"/>
    </contour>
    <contour>
      <point x="161" y="492" type="curve"/>
      <point x="92" y="492" type="line"/>
      <point x="68" y="466"/>
      <point x="56" y="428"/>
      <point x="56" y="399" type="curve" smooth="yes"/>
      <point x="56" y="357"/>
      <point x="70" y="323"/>
      <point x="105" y="295" type="curve" smooth="yes"/>
      <point x="203" y="216" type="line"/>
      <point x="314" y="270" type="line"/>
      <point x="186" y="374" type="line" smooth="yes"/>
      <point x="154" y="400"/>
      <point x="150" y="417"/>
      <point x="150" y="439" type="curve" smooth="yes"/>
      <point x="150" y="455"/>
      <point x="153" y="473"/>
    </contour>
  </outline>
</glyph>
<glyph name="uni057A" format="2">
  <advance width="785"/>
  <unicode hex="057A"/>
  <note>
uni057A
</note>
  <outline>
    <contour>
      <point x="539" y="492" type="line"/>
      <point x="539" y="445" type="line"/>
      <point x="580" y="445"/>
      <point x="588" y="437"/>
      <point x="588" y="376" type="curve" smooth="yes"/>
      <point x="588" y="220" type="line" smooth="yes"/>
      <point x="588" y="121"/>
      <point x="567" y="61"/>
      <point x="513" y="61" type="curve" smooth="yes"/>
      <point x="467" y="61"/>
      <point x="452" y="105"/>
      <point x="452" y="198" type="curve" smooth="yes"/>
      <point x="452" y="492" type="line"/>
      <point x="282" y="492" type="line"/>
      <point x="282" y="445" type="line"/>
      <point x="323" y="445"/>
      <point x="331" y="437"/>
      <point x="331" y="373" type="curve" smooth="yes"/>
      <point x="331" y="208" type="line" smooth="yes"/>
      <point x="331" y="113"/>
      <point x="310" y="61"/>
      <point x="256" y="61" type="curve" smooth="yes"/>
      <point x="210" y="61"/>
      <point x="193" y="109"/>
      <point x="193" y="198" type="curve" smooth="yes"/>
      <point x="193" y="492" type="line"/>
      <point x="23" y="492" type="line"/>
      <point x="23" y="445" type="line"/>
      <point x="66" y="445"/>
      <point x="73" y="438"/>
      <point x="73" y="374" type="curve" smooth="yes"/>
      <point x="73" y="176" type="line" smooth="yes"/>
      <point x="73" y="45"/>
      <point x="121" y="-10"/>
      <point x="208" y="-10" type="curve" smooth="yes"/>
      <point x="275" y="-10"/>
      <point x="318" y="16"/>
      <point x="337" y="68" type="curve"/>
      <point x="340" y="68" type="line"/>
      <point x="357" y="11"/>
      <point x="395" y="-10"/>
      <point x="456" y="-10" type="curve" smooth="yes"/>
      <point x="530" y="-10"/>
      <point x="566" y="22"/>
      <point x="587" y="66" type="curve"/>
      <point x="591" y="66" type="line"/>
      <point x="590" y="41"/>
      <point x="588" y="17"/>
      <point x="588" y="-7" type="curve" smooth="yes"/>
      <point x="588" y="-237" type="line"/>
      <point x="758" y="-237" type="line"/>
      <point x="758" y="-191" type="line"/>
      <point x="713" y="-191"/>
      <point x="708" y="-180"/>
      <point x="708" y="-121" type="curve" smooth="yes"/>
      <point x="708" y="492" type="line"/>
    </contour>
  </outline>
</glyph>
<glyph name="uni057B" format="2">
  <advance width="477"/>
  <unicode hex="057B"/>
  <note>
uni057B
</note>
  <outline>
    <contour>
      <point x="157" y="-237" type="curve" smooth="yes"/>
      <point x="414" y="-237" type="line"/>
      <point x="414" y="-176" type="line"/>
      <point x="230" y="-176" type="line" smooth="yes"/>
      <point x="200" y="-176"/>
      <point x="192" y="-164"/>
      <point x="192" y="-146" type="curve" smooth="yes"/>
      <point x="192" y="-109"/>
      <point x="207" y="-80"/>
      <point x="289" y="21" type="curve" smooth="yes"/>
      <point x="393" y="150"/>
      <point x="434" y="218"/>
      <point x="434" y="327" type="curve" smooth="yes"/>
      <point x="434" y="439"/>
      <point x="363" y="502"/>
      <point x="239" y="502" type="curve" smooth="yes"/>
      <point x="115" y="502"/>
      <point x="44" y="430"/>
      <point x="44" y="341" type="curve" smooth="yes"/>
      <point x="44" y="259"/>
      <point x="73" y="214"/>
      <point x="102" y="171" type="curve" smooth="yes"/>
      <point x="135" y="122"/>
      <point x="154" y="84"/>
      <point x="154" y="25" type="curve" smooth="yes"/>
      <point x="154" y="-1"/>
      <point x="147" y="-16"/>
      <point x="117" y="-58" type="curve"/>
      <point x="174" y="-58" type="line"/>
      <point x="215" y="-10"/>
      <point x="230" y="22"/>
      <point x="230" y="67" type="curve" smooth="yes"/>
      <point x="230" y="126"/>
      <point x="218" y="161"/>
      <point x="195" y="209" type="curve" smooth="yes"/>
      <point x="180" y="241"/>
      <point x="166" y="278"/>
      <point x="166" y="336" type="curve" smooth="yes"/>
      <point x="166" y="402"/>
      <point x="189" y="446"/>
      <point x="239" y="446" type="curve" smooth="yes"/>
      <point x="289" y="446"/>
      <point x="311" y="410"/>
      <point x="311" y="333" type="curve" smooth="yes"/>
      <point x="311" y="227"/>
      <point x="285" y="156"/>
      <point x="181" y="25" type="curve" smooth="yes"/>
      <point x="90" y="-90"/>
      <point x="72" y="-130"/>
      <point x="72" y="-165" type="curve" smooth="yes"/>
      <point x="72" y="-222"/>
      <point x="99" y="-237"/>
    </contour>
  </outline>
</glyph>
<glyph name="uni057C" format="2">
  <advance width="535"/>
  <unicode hex="057C"/>
  <note>
uni057C
</note>
  <outline>
    <contour>
      <point x="340" y="0" type="line"/>
      <point x="530" y="0" type="line"/>
      <point x="530" y="55" type="line"/>
      <point x="340" y="55" type="line"/>
    </contour>
    <contour>
      <point x="317" y="502" type="curve" smooth="yes"/>
      <point x="257" y="502"/>
      <point x="220" y="466"/>
      <point x="198" y="418" type="curve"/>
      <point x="195" y="418" type="line"/>
      <point x="186" y="492" type="line"/>
      <point x="24" y="492" type="line"/>
      <point x="24" y="445" type="line"/>
      <point x="68" y="445"/>
      <point x="76" y="436"/>
      <point x="76" y="377" type="curve" smooth="yes"/>
      <point x="76" y="0" type="line"/>
      <point x="197" y="0" type="line"/>
      <point x="197" y="268" type="line" smooth="yes"/>
      <point x="197" y="364"/>
      <point x="223" y="428"/>
      <point x="273" y="428" type="curve" smooth="yes"/>
      <point x="322" y="428"/>
      <point x="344" y="382"/>
      <point x="344" y="281" type="curve" smooth="yes"/>
      <point x="344" y="197"/>
      <point x="328" y="101"/>
      <point x="290" y="0" type="curve"/>
      <point x="365" y="0" type="line"/>
      <point x="432" y="111"/>
      <point x="465" y="206"/>
      <point x="465" y="304" type="curve" smooth="yes"/>
      <point x="465" y="441"/>
      <point x="416" y="502"/>
    </contour>
  </outline>
</glyph>
<glyph name="uni057D" format="2">
  <advance width="528"/>
  <unicode hex="057D"/>
  <note>
uni057D
</note>
  <outline>
    <contour>
      <point x="210" y="-10" type="curve" smooth="yes"/>
      <point x="270" y="-10"/>
      <point x="307" y="20"/>
      <point x="331" y="72" type="curve"/>
      <point x="335" y="72" type="line"/>
      <point x="352" y="0" type="line"/>
      <point x="501" y="0" type="line"/>
      <point x="501" y="47" type="line"/>
      <point x="457" y="47"/>
      <point x="453" y="52"/>
      <point x="453" y="115" type="curve" smooth="yes"/>
      <point x="453" y="492" type="line"/>
      <point x="282" y="492" type="line"/>
      <point x="282" y="445" type="line"/>
      <point x="320" y="445"/>
      <point x="332" y="437"/>
      <point x="332" y="374" type="curve" smooth="yes"/>
      <point x="332" y="222" type="line" smooth="yes"/>
      <point x="332" y="128"/>
      <point x="309" y="63"/>
      <point x="256" y="63" type="curve" smooth="yes"/>
      <point x="210" y="63"/>
      <point x="194" y="119"/>
      <point x="194" y="210" type="curve" smooth="yes"/>
      <point x="194" y="492" type="line"/>
      <point x="23" y="492" type="line"/>
      <point x="23" y="445" type="line"/>
      <point x="67" y="445"/>
      <point x="73" y="438"/>
      <point x="73" y="373" type="curve" smooth="yes"/>
      <point x="73" y="187" type="line" smooth="yes"/>
      <point x="73" y="51"/>
      <point x="115" y="-10"/>
    </contour>
  </outline>
</glyph>
<glyph name="uni057E" format="2">
  <advance width="539"/>
  <unicode hex="057E"/>
  <note>
uni057E
</note>
  <outline>
    <contour>
      <point x="210" y="-10" type="curve" smooth="yes"/>
      <point x="270" y="-10"/>
      <point x="307" y="20"/>
      <point x="331" y="72" type="curve"/>
      <point x="335" y="72" type="line"/>
      <point x="333" y="48"/>
      <point x="332" y="24"/>
      <point x="332" y="0" type="curve" smooth="yes"/>
      <point x="332" y="-237" type="line"/>
      <point x="453" y="-237" type="line"/>
      <point x="453" y="760" type="line"/>
      <point x="282" y="760" type="line"/>
      <point x="282" y="713" type="line"/>
      <point x="320" y="713"/>
      <point x="332" y="705"/>
      <point x="332" y="642" type="curve" smooth="yes"/>
      <point x="332" y="222" type="line" smooth="yes"/>
      <point x="332" y="128"/>
      <point x="309" y="63"/>
      <point x="256" y="63" type="curve" smooth="yes"/>
      <point x="210" y="63"/>
      <point x="194" y="119"/>
      <point x="194" y="210" type="curve" smooth="yes"/>
      <point x="194" y="492" type="line"/>
      <point x="23" y="492" type="line"/>
      <point x="23" y="445" type="line"/>
      <point x="67" y="445"/>
      <point x="73" y="438"/>
      <point x="73" y="373" type="curve" smooth="yes"/>
      <point x="73" y="187" type="line" smooth="yes"/>
      <point x="73" y="51"/>
      <point x="115" y="-10"/>
    </contour>
    <contour>
      <point x="369" y="-237" type="line"/>
      <point x="557" y="-237" type="line"/>
      <point x="557" y="-182" type="line"/>
      <point x="369" y="-182" type="line"/>
    </contour>
  </outline>
</glyph>
<glyph name="uni057F" format="2">
  <advance width="783"/>
  <unicode hex="057F"/>
  <note>
uni057F
</note>
  <outline>
    <contour>
      <point x="711" y="119" type="curve" smooth="yes"/>
      <point x="711" y="313" type="line" smooth="yes"/>
      <point x="711" y="444"/>
      <point x="667" y="502"/>
      <point x="577" y="502" type="curve" smooth="yes"/>
      <point x="507" y="502"/>
      <point x="475" y="466"/>
      <point x="454" y="418" type="curve"/>
      <point x="450" y="418" type="line"/>
      <point x="442" y="492" type="line"/>
      <point x="280" y="492" type="line"/>
      <point x="280" y="445" type="line"/>
      <point x="323" y="445"/>
      <point x="332" y="436"/>
      <point x="332" y="377" type="curve" smooth="yes"/>
      <point x="332" y="222" type="line" smooth="yes"/>
      <point x="332" y="128"/>
      <point x="309" y="63"/>
      <point x="256" y="63" type="curve" smooth="yes"/>
      <point x="210" y="63"/>
      <point x="194" y="119"/>
      <point x="194" y="210" type="curve" smooth="yes"/>
      <point x="194" y="492" type="line"/>
      <point x="23" y="492" type="line"/>
      <point x="23" y="445" type="line"/>
      <point x="67" y="445"/>
      <point x="73" y="438"/>
      <point x="73" y="373" type="curve" smooth="yes"/>
      <point x="73" y="187" type="line" smooth="yes"/>
      <point x="73" y="51"/>
      <point x="115" y="-10"/>
      <point x="210" y="-10" type="curve" smooth="yes"/>
      <point x="270" y="-10"/>
      <point x="307" y="20"/>
      <point x="331" y="72" type="curve"/>
      <point x="335" y="72" type="line"/>
      <point x="352" y="0" type="line"/>
      <point x="501" y="0" type="line"/>
      <point x="501" y="47" type="line"/>
      <point x="457" y="47"/>
      <point x="453" y="52"/>
      <point x="453" y="115" type="curve" smooth="yes"/>
      <point x="453" y="268" type="line" smooth="yes"/>
      <point x="453" y="364"/>
      <point x="479" y="428"/>
      <point x="529" y="428" type="curve" smooth="yes"/>
      <point x="576" y="428"/>
      <point x="590" y="375"/>
      <point x="590" y="291" type="curve" smooth="yes"/>
      <point x="590" y="0" type="line"/>
      <point x="760" y="0" type="line"/>
      <point x="760" y="47" type="line"/>
      <point x="718" y="47"/>
      <point x="711" y="55"/>
    </contour>
  </outline>
</glyph>
<glyph name="uni0581" format="2">
  <advance width="503"/>
  <unicode hex="0581"/>
  <note>
uni0581
</note>
  <outline>
    <contour>
      <point x="221" y="-240" type="curve" smooth="yes"/>
      <point x="363" y="-240"/>
      <point x="438" y="-160"/>
      <point x="438" y="4" type="curve" smooth="yes"/>
      <point x="438" y="492" type="line"/>
      <point x="343" y="492" type="line"/>
      <point x="328" y="420" type="line"/>
      <point x="322" y="420" type="line"/>
      <point x="296" y="477"/>
      <point x="259" y="502"/>
      <point x="201" y="502" type="curve" smooth="yes"/>
      <point x="98" y="502"/>
      <point x="38" y="413"/>
      <point x="38" y="246" type="curve" smooth="yes"/>
      <point x="38" y="77"/>
      <point x="99" y="-9"/>
      <point x="194" y="-9" type="curve" smooth="yes"/>
      <point x="255" y="-9"/>
      <point x="288" y="13"/>
      <point x="316" y="74" type="curve"/>
      <point x="322" y="74" type="line"/>
      <point x="317" y="47"/>
      <point x="317" y="24"/>
      <point x="317" y="-9" type="curve" smooth="yes"/>
      <point x="317" y="-29" type="line" smooth="yes"/>
      <point x="317" y="-143"/>
      <point x="284" y="-185"/>
      <point x="218" y="-185" type="curve" smooth="yes"/>
      <point x="158" y="-185"/>
      <point x="131" y="-149"/>
      <point x="131" y="-66" type="curve"/>
      <point x="78" y="-67"/>
      <point x="54" y="-91"/>
      <point x="54" y="-129" type="curve" smooth="yes"/>
      <point x="54" y="-204"/>
      <point x="119" y="-240"/>
    </contour>
    <contour>
      <point x="238" y="56" type="curve" smooth="yes"/>
      <point x="177" y="56"/>
      <point x="161" y="136"/>
      <point x="161" y="245" type="curve" smooth="yes"/>
      <point x="161" y="355"/>
      <point x="176" y="437"/>
      <point x="238" y="437" type="curve" smooth="yes"/>
      <point x="294" y="437"/>
      <point x="317" y="378"/>
      <point x="317" y="246" type="curve" smooth="yes"/>
      <point x="317" y="109"/>
      <point x="291" y="56"/>
    </contour>
  </outline>
</glyph>
<glyph name="uni0582" format="2">
  <advance width="342"/>
  <unicode hex="0582"/>
  <note>
uni0582
</note>
  <outline>
    <contour>
      <point x="331" y="111" type="line"/>
      <point x="286" y="111" type="line"/>
      <point x="286" y="63"/>
      <point x="279" y="55"/>
      <point x="242" y="55" type="curve" smooth="yes"/>
      <point x="197" y="55" type="line"/>
      <point x="197" y="492" type="line"/>
      <point x="25" y="492" type="line"/>
      <point x="25" y="445" type="line"/>
      <point x="35" y="445" type="line" smooth="yes"/>
      <point x="70" y="445"/>
      <point x="76" y="439"/>
      <point x="76" y="398" type="curve" smooth="yes"/>
      <point x="76" y="0" type="line"/>
      <point x="331" y="0" type="line"/>
    </contour>
  </outline>
</glyph>
<glyph name="uni0583" format="2">
  <advance width="783"/>
  <unicode hex="0583"/>
  <note>
uni0583
</note>
  <outline>
    <contour>
      <point x="711" y="119" type="curve" smooth="yes"/>
      <point x="711" y="313" type="line" smooth="yes"/>
      <point x="711" y="444"/>
      <point x="667" y="502"/>
      <point x="577" y="502" type="curve" smooth="yes"/>
      <point x="507" y="502"/>
      <point x="475" y="467"/>
      <point x="454" y="419" type="curve"/>
      <point x="450" y="419" type="line"/>
      <point x="451" y="443"/>
      <point x="453" y="469"/>
      <point x="453" y="494" type="curve" smooth="yes"/>
      <point x="453" y="760" type="line"/>
      <point x="280" y="760" type="line"/>
      <point x="280" y="713" type="line"/>
      <point x="323" y="713"/>
      <point x="332" y="704"/>
      <point x="332" y="645" type="curve" smooth="yes"/>
      <point x="332" y="222" type="line" smooth="yes"/>
      <point x="332" y="128"/>
      <point x="309" y="63"/>
      <point x="256" y="63" type="curve" smooth="yes"/>
      <point x="210" y="63"/>
      <point x="194" y="119"/>
      <point x="194" y="210" type="curve" smooth="yes"/>
      <point x="194" y="492" type="line"/>
      <point x="23" y="492" type="line"/>
      <point x="23" y="445" type="line"/>
      <point x="67" y="445"/>
      <point x="73" y="438"/>
      <point x="73" y="373" type="curve" smooth="yes"/>
      <point x="73" y="187" type="line" smooth="yes"/>
      <point x="73" y="51"/>
      <point x="115" y="-10"/>
      <point x="210" y="-10" type="curve" smooth="yes"/>
      <point x="270" y="-10"/>
      <point x="307" y="20"/>
      <point x="331" y="72" type="curve"/>
      <point x="335" y="72" type="line"/>
      <point x="334" y="48"/>
      <point x="332" y="24"/>
      <point x="332" y="0" type="curve" smooth="yes"/>
      <point x="332" y="-237" type="line"/>
      <point x="504" y="-237" type="line"/>
      <point x="504" y="-190" type="line"/>
      <point x="461" y="-190"/>
      <point x="453" y="-182"/>
      <point x="453" y="-122" type="curve" smooth="yes"/>
      <point x="453" y="268" type="line" smooth="yes"/>
      <point x="453" y="365"/>
      <point x="479" y="428"/>
      <point x="529" y="428" type="curve" smooth="yes"/>
      <point x="576" y="428"/>
      <point x="590" y="375"/>
      <point x="590" y="291" type="curve" smooth="yes"/>
      <point x="590" y="0" type="line"/>
      <point x="760" y="0" type="line"/>
      <point x="760" y="47" type="line"/>
      <point x="718" y="47"/>
      <point x="711" y="55"/>
    </contour>
  </outline>
</glyph>
<glyph name="uni0584" format="2">
  <advance width="513"/>
  <unicode hex="0584"/>
  <note>
uni0584
</note>
  <outline>
    <contour>
      <point x="313" y="502" type="curve" smooth="yes"/>
      <point x="254" y="502"/>
      <point x="217" y="476"/>
      <point x="192" y="420" type="curve"/>
      <point x="185" y="420" type="line"/>
      <point x="170" y="492" type="line"/>
      <point x="24" y="492" type="line"/>
      <point x="24" y="445" type="line"/>
      <point x="69" y="445"/>
      <point x="76" y="437"/>
      <point x="76" y="386" type="curve" smooth="yes"/>
      <point x="76" y="-237" type="line"/>
      <point x="247" y="-237" type="line"/>
      <point x="247" y="-191" type="line"/>
      <point x="211" y="-191"/>
      <point x="197" y="-185"/>
      <point x="197" y="-131" type="curve" smooth="yes"/>
      <point x="197" y="-59" type="line" smooth="yes"/>
      <point x="197" y="-23"/>
      <point x="197" y="9"/>
      <point x="191" y="63" type="curve"/>
      <point x="197" y="63" type="line"/>
      <point x="226" y="8"/>
      <point x="258" y="-9"/>
      <point x="319" y="-9" type="curve" smooth="yes"/>
      <point x="415" y="-9"/>
      <point x="475" y="77"/>
      <point x="475" y="246" type="curve" smooth="yes"/>
      <point x="475" y="413"/>
      <point x="416" y="502"/>
    </contour>
    <contour>
      <point x="276" y="54" type="curve" smooth="yes"/>
      <point x="222" y="54"/>
      <point x="197" y="109"/>
      <point x="197" y="246" type="curve" smooth="yes"/>
      <point x="197" y="378"/>
      <point x="220" y="439"/>
      <point x="275" y="439" type="curve" smooth="yes"/>
      <point x="337" y="439"/>
      <point x="352" y="361"/>
      <point x="352" y="245" type="curve" smooth="yes"/>
      <point x="352" y="130"/>
      <point x="336" y="54"/>
    </contour>
    <contour>
      <point x="13" y="-128" type="line"/>
      <point x="442" y="-128" type="line"/>
      <point x="442" y="-73" type="line"/>
      <point x="13" y="-73" type="line"/>
    </contour>
  </outline>
</glyph>
<glyph name="uni0585" format="2">
  <advance width="495"/>
  <unicode hex="0585"/>
  <note>
uni0585
</note>
  <anchor x="247" y="492" name="top"/>
  <outline>
    <contour>
      <point x="246" y="-10" type="curve" smooth="yes"/>
      <point x="384" y="-10"/>
      <point x="456" y="72"/>
      <point x="456" y="246" type="curve" smooth="yes"/>
      <point x="456" y="418"/>
      <point x="381" y="502"/>
      <point x="249" y="502" type="curve" smooth="yes"/>
      <point x="109" y="502"/>
      <point x="38" y="418"/>
      <point x="38" y="246" type="curve" smooth="yes"/>
      <point x="38" y="73"/>
      <point x="116" y="-10"/>
    </contour>
    <contour>
      <point x="248" y="48" type="curve" smooth="yes"/>
      <point x="186" y="48"/>
      <point x="161" y="114"/>
      <point x="161" y="246" type="curve" smooth="yes"/>
      <point x="161" y="380"/>
      <point x="182" y="444"/>
      <point x="247" y="444" type="curve" smooth="yes"/>
      <point x="311" y="444"/>
      <point x="334" y="380"/>
      <point x="334" y="246" type="curve" smooth="yes"/>
      <point x="334" y="114"/>
      <point x="312" y="48"/>
    </contour>
  </outline>
</glyph>
<glyph name="uni0586" format="2">
  <advance width="593"/>
  <unicode hex="0586"/>
  <note>
uni0586
</note>
  <outline>
    <contour>
      <point x="274" y="-10" type="curve" smooth="yes"/>
      <point x="458" y="-10"/>
      <point x="559" y="75"/>
      <point x="559" y="196" type="curve" smooth="yes"/>
      <point x="559" y="323"/>
      <point x="504" y="374"/>
      <point x="296" y="440" type="curve" smooth="yes"/>
      <point x="165" y="482"/>
      <point x="144" y="517"/>
      <point x="144" y="595" type="curve" smooth="yes"/>
      <point x="144" y="669"/>
      <point x="174" y="705"/>
      <point x="227" y="705" type="curve"/>
      <point x="227" y="760" type="line"/>
      <point x="105" y="760"/>
      <point x="29" y="689"/>
      <point x="29" y="595" type="curve" smooth="yes"/>
      <point x="29" y="480"/>
      <point x="89" y="424"/>
      <point x="276" y="370" type="curve"/>
      <point x="399" y="333"/>
      <point x="438" y="293"/>
      <point x="438" y="195" type="curve" smooth="yes"/>
      <point x="438" y="91"/>
      <point x="382" y="46"/>
      <point x="277" y="46" type="curve" smooth="yes"/>
      <point x="161" y="46"/>
      <point x="108" y="96"/>
      <point x="108" y="216" type="curve"/>
      <point x="62" y="216"/>
      <point x="20" y="191"/>
      <point x="20" y="150" type="curve" smooth="yes"/>
      <point x="20" y="59"/>
      <point x="105" y="-10"/>
    </contour>
    <contour>
      <point x="227" y="-237" type="line"/>
      <point x="393" y="-237" type="line"/>
      <point x="393" y="-191" type="line"/>
      <point x="349" y="-191"/>
      <point x="343" y="-183"/>
      <point x="343" y="-125" type="curve" smooth="yes"/>
      <point x="343" y="760" type="line"/>
      <point x="227" y="760" type="line"/>
    </contour>
  </outline>
</glyph>
<glyph name="uni0587" format="2">
  <advance width="558"/>
  <unicode hex="0587"/>
  <note>
uni0587
</note>
  <outline>
    <contour>
      <point x="210" y="-10" type="curve" smooth="yes"/>
      <point x="270" y="-10"/>
      <point x="307" y="20"/>
      <point x="331" y="72" type="curve"/>
      <point x="335" y="72" type="line"/>
      <point x="352" y="0" type="line"/>
      <point x="453" y="0" type="line"/>
      <point x="453" y="492" type="line"/>
      <point x="282" y="492" type="line"/>
      <point x="282" y="445" type="line"/>
      <point x="320" y="445"/>
      <point x="332" y="437"/>
      <point x="332" y="374" type="curve" smooth="yes"/>
      <point x="332" y="222" type="line" smooth="yes"/>
      <point x="332" y="128"/>
      <point x="309" y="63"/>
      <point x="256" y="63" type="curve" smooth="yes"/>
      <point x="210" y="63"/>
      <point x="194" y="119"/>
      <point x="194" y="213" type="curve" smooth="yes"/>
      <point x="194" y="760" type="line"/>
      <point x="23" y="760" type="line"/>
      <point x="23" y="713" type="line"/>
      <point x="67" y="713"/>
      <point x="73" y="706"/>
      <point x="73" y="641" type="curve" smooth="yes"/>
      <point x="73" y="187" type="line" smooth="yes"/>
      <point x="73" y="51"/>
      <point x="115" y="-10"/>
    </contour>
    <contour>
      <point x="420" y="0" type="line"/>
      <point x="553" y="0" type="line"/>
      <point x="553" y="55" type="line"/>
      <point x="420" y="55" type="line"/>
    </contour>
  </outline>
</glyph>
<glyph name="uni0588" format="2">
  <advance width="296"/>
  <unicode hex="0588"/>
  <note>
uni0575
</note>
  <outline>
    <contour>
      <point x="88" y="134" type="line" smooth="yes"/>
      <point x="88" y="22"/>
      <point x="121" y="-18"/>
      <point x="121" y="-101" type="curve" smooth="yes"/>
      <point x="121" y="-154"/>
      <point x="99" y="-184"/>
      <point x="49" y="-184" type="curve" smooth="yes"/>
      <point x="43" y="-184" type="line"/>
      <point x="43" y="-237" type="line"/>
      <point x="58" y="-237" type="line" smooth="yes"/>
      <point x="190" y="-237"/>
      <point x="242" y="-188"/>
      <point x="242" y="-97" type="curve" smooth="yes"/>
      <point x="242" y="-10"/>
      <point x="209" y="26"/>
      <point x="209" y="133" type="curve" smooth="yes"/>
      <point x="209" y="492" type="line"/>
      <point x="36" y="492" type="line"/>
      <point x="36" y="445" type="line"/>
      <point x="45" y="445" type="line" smooth="yes"/>
      <point x="82" y="445"/>
      <point x="88" y="434"/>
      <point x="88" y="373" type="curve" smooth="yes"/>
    </contour>
    <contour>
      <point x="8" y="142" type="line"/>
      <point x="8" y="87" type="line"/>
      <point x="289" y="87" type="line"/>
      <point x="289" y="142" type="line"/>
    </contour>
  </outline>
</glyph>
<glyph name="uni058A" format="2">
  <advance width="394"/>
  <unicode hex="058A"/>
  <note>
uni058A
</note>
  <outline>
    <contour>
      <point x="159" y="194" type="curve" smooth="yes"/>
      <point x="227" y="194"/>
      <point x="291" y="213"/>
      <point x="352" y="242" type="curve"/>
      <point x="337" y="296" type="line"/>
      <point x="286" y="280"/>
      <point x="238" y="271"/>
      <point x="196" y="271" type="curve" smooth="yes"/>
      <point x="155" y="271"/>
      <point x="140" y="292"/>
      <point x="140" y="342" type="curve"/>
      <point x="46" y="342" type="line"/>
      <point x="46" y="238"/>
      <point x="75" y="194"/>
    </contour>
  </outline>
</glyph>
<glyph name="uni058D" format="2">
  <advance width="818"/>
  <unicode hex="058D"/>
  <outline>
    <contour>
      <point x="409" y="-10" type="curve" smooth="yes"/>
      <point x="461" y="-10"/>
      <point x="508" y="9"/>
      <point x="544" y="41" type="curve"/>
      <point x="649" y="50"/>
      <point x="726" y="128"/>
      <point x="729" y="227" type="curve"/>
      <point x="762" y="264"/>
      <point x="781" y="309"/>
      <point x="781" y="357" type="curve" smooth="yes"/>
      <point x="781" y="407"/>
      <point x="761" y="453"/>
      <point x="728" y="488" type="curve"/>
      <point x="724" y="589"/>
      <point x="645" y="665"/>
      <point x="544" y="672" type="curve"/>
      <point x="508" y="705"/>
      <point x="460" y="724"/>
      <point x="409" y="724" type="curve" smooth="yes"/>
      <point x="358" y="724"/>
      <point x="310" y="705"/>
      <point x="275" y="673" type="curve"/>
      <point x="168" y="664"/>
      <point x="92" y="586"/>
      <point x="89" y="487" type="curve"/>
      <point x="56" y="450"/>
      <point x="37" y="404"/>
      <point x="37" y="357" type="curve" smooth="yes"/>
      <point x="37" y="307"/>
      <point x="57" y="261"/>
      <point x="89" y="226" type="curve"/>
      <point x="93" y="127"/>
      <point x="172" y="49"/>
      <point x="273" y="42" type="curve"/>
      <point x="310" y="9"/>
      <point x="359" y="-10"/>
    </contour>
    <contour>
      <point x="587" y="99" type="curve"/>
      <point x="601" y="124"/>
      <point x="608" y="154"/>
      <point x="608" y="185" type="curve" smooth="yes"/>
      <point x="608" y="272"/>
      <point x="549" y="346"/>
      <point x="468" y="371" type="curve"/>
      <point x="487" y="380"/>
      <point x="508" y="385"/>
      <point x="528" y="385" type="curve" smooth="yes"/>
      <point x="609" y="385"/>
      <point x="675" y="316"/>
      <point x="675" y="234" type="curve" smooth="yes"/>
      <point x="675" y="172"/>
      <point x="636" y="118"/>
    </contour>
    <contour>
      <point x="409" y="35" type="curve" smooth="yes"/>
      <point x="386" y="35"/>
      <point x="366" y="40"/>
      <point x="347" y="50" type="curve"/>
      <point x="432" y="74"/>
      <point x="486" y="151"/>
      <point x="486" y="235" type="curve" smooth="yes"/>
      <point x="486" y="265"/>
      <point x="479" y="295"/>
      <point x="464" y="322" type="curve"/>
      <point x="516" y="300"/>
      <point x="553" y="246"/>
      <point x="553" y="185" type="curve" smooth="yes"/>
      <point x="553" y="102"/>
      <point x="489" y="35"/>
    </contour>
    <contour>
      <point x="717" y="304" type="curve"/>
      <point x="687" y="382"/>
      <point x="613" y="430"/>
      <point x="532" y="430" type="curve" smooth="yes"/>
      <point x="502" y="430"/>
      <point x="474" y="424"/>
      <point x="446" y="411" type="curve"/>
      <point x="467" y="466"/>
      <point x="519" y="505"/>
      <point x="581" y="505" type="curve" smooth="yes"/>
      <point x="662" y="505"/>
      <point x="727" y="439"/>
      <point x="727" y="357" type="curve" smooth="yes"/>
      <point x="727" y="339"/>
      <point x="723" y="320"/>
    </contour>
    <contour>
      <point x="286" y="86" type="curve" smooth="yes"/>
      <point x="227" y="86"/>
      <point x="173" y="125"/>
      <point x="153" y="181" type="curve"/>
      <point x="178" y="169"/>
      <point x="207" y="161"/>
      <point x="237" y="161" type="curve" smooth="yes"/>
      <point x="321" y="161"/>
      <point x="394" y="215"/>
      <point x="423" y="288" type="curve"/>
      <point x="429" y="272"/>
      <point x="432" y="255"/>
      <point x="432" y="238" type="curve" smooth="yes"/>
      <point x="432" y="152"/>
      <point x="365" y="86"/>
    </contour>
    <contour>
      <point x="395" y="426" type="curve"/>
      <point x="389" y="442"/>
      <point x="386" y="459"/>
      <point x="386" y="476" type="curve" smooth="yes"/>
      <point x="386" y="562"/>
      <point x="453" y="628"/>
      <point x="532" y="628" type="curve" smooth="yes"/>
      <point x="591" y="628"/>
      <point x="646" y="589"/>
      <point x="665" y="533" type="curve"/>
      <point x="640" y="545"/>
      <point x="611" y="553"/>
      <point x="580" y="553" type="curve" smooth="yes"/>
      <point x="496" y="553"/>
      <point x="423" y="499"/>
    </contour>
    <contour>
      <point x="237" y="209" type="curve" smooth="yes"/>
      <point x="156" y="209"/>
      <point x="91" y="275"/>
      <point x="91" y="357" type="curve" smooth="yes"/>
      <point x="91" y="375"/>
      <point x="95" y="394"/>
      <point x="102" y="410" type="curve"/>
      <point x="131" y="332"/>
      <point x="205" y="284"/>
      <point x="286" y="284" type="curve" smooth="yes"/>
      <point x="315" y="284"/>
      <point x="344" y="290"/>
      <point x="372" y="303" type="curve"/>
      <point x="351" y="248"/>
      <point x="299" y="209"/>
    </contour>
    <contour>
      <point x="353" y="392" type="curve"/>
      <point x="301" y="414"/>
      <point x="265" y="468"/>
      <point x="265" y="529" type="curve" smooth="yes"/>
      <point x="265" y="612"/>
      <point x="329" y="679"/>
      <point x="409" y="679" type="curve" smooth="yes"/>
      <point x="431" y="679"/>
      <point x="452" y="675"/>
      <point x="471" y="664" type="curve"/>
      <point x="386" y="640"/>
      <point x="332" y="563"/>
      <point x="332" y="479" type="curve" smooth="yes"/>
      <point x="332" y="449"/>
      <point x="338" y="419"/>
    </contour>
    <contour>
      <point x="289" y="329" type="curve" smooth="yes"/>
      <point x="208" y="329"/>
      <point x="142" y="398"/>
      <point x="142" y="480" type="curve" smooth="yes"/>
      <point x="142" y="540"/>
      <point x="177" y="593"/>
      <point x="231" y="616" type="curve"/>
      <point x="217" y="590"/>
      <point x="209" y="561"/>
      <point x="209" y="529" type="curve" smooth="yes"/>
      <point x="209" y="442"/>
      <point x="269" y="368"/>
      <point x="349" y="343" type="curve"/>
      <point x="331" y="334"/>
      <point x="310" y="329"/>
    </contour>
  </outline>
</glyph>
<glyph name="uni058E" format="2">
  <advance width="818"/>
  <unicode hex="058E"/>
  <outline>
    <contour>
      <point x="409" y="-10" type="curve" smooth="yes"/>
      <point x="459" y="-10"/>
      <point x="508" y="9"/>
      <point x="545" y="42" type="curve"/>
      <point x="646" y="49"/>
      <point x="725" y="127"/>
      <point x="728" y="226" type="curve"/>
      <point x="761" y="261"/>
      <point x="781" y="307"/>
      <point x="781" y="357" type="curve" smooth="yes"/>
      <point x="781" y="404"/>
      <point x="762" y="450"/>
      <point x="729" y="487" type="curve"/>
      <point x="726" y="586"/>
      <point x="649" y="664"/>
      <point x="543" y="673" type="curve"/>
      <point x="508" y="705"/>
      <point x="460" y="724"/>
      <point x="409" y="724" type="curve" smooth="yes"/>
      <point x="358" y="724"/>
      <point x="310" y="705"/>
      <point x="274" y="672" type="curve"/>
      <point x="173" y="665"/>
      <point x="93" y="589"/>
      <point x="89" y="488" type="curve"/>
      <point x="57" y="453"/>
      <point x="37" y="407"/>
      <point x="37" y="357" type="curve" smooth="yes"/>
      <point x="37" y="309"/>
      <point x="56" y="264"/>
      <point x="89" y="227" type="curve"/>
      <point x="92" y="128"/>
      <point x="169" y="50"/>
      <point x="274" y="41" type="curve"/>
      <point x="310" y="9"/>
      <point x="357" y="-10"/>
    </contour>
    <contour>
      <point x="231" y="99" type="curve"/>
      <point x="181" y="118"/>
      <point x="142" y="172"/>
      <point x="142" y="234" type="curve" smooth="yes"/>
      <point x="142" y="316"/>
      <point x="208" y="385"/>
      <point x="289" y="385" type="curve" smooth="yes"/>
      <point x="310" y="385"/>
      <point x="331" y="380"/>
      <point x="349" y="371" type="curve"/>
      <point x="269" y="346"/>
      <point x="209" y="272"/>
      <point x="209" y="185" type="curve" smooth="yes"/>
      <point x="209" y="154"/>
      <point x="217" y="124"/>
    </contour>
    <contour>
      <point x="409" y="35" type="curve" smooth="yes"/>
      <point x="329" y="35"/>
      <point x="265" y="102"/>
      <point x="265" y="185" type="curve" smooth="yes"/>
      <point x="265" y="246"/>
      <point x="301" y="300"/>
      <point x="353" y="322" type="curve"/>
      <point x="338" y="295"/>
      <point x="332" y="265"/>
      <point x="332" y="235" type="curve" smooth="yes"/>
      <point x="332" y="151"/>
      <point x="386" y="74"/>
      <point x="471" y="50" type="curve"/>
      <point x="452" y="40"/>
      <point x="431" y="35"/>
    </contour>
    <contour>
      <point x="101" y="304" type="curve"/>
      <point x="95" y="320"/>
      <point x="91" y="339"/>
      <point x="91" y="357" type="curve" smooth="yes"/>
      <point x="91" y="439"/>
      <point x="156" y="505"/>
      <point x="237" y="505" type="curve" smooth="yes"/>
      <point x="299" y="505"/>
      <point x="351" y="466"/>
      <point x="372" y="411" type="curve"/>
      <point x="344" y="424"/>
      <point x="315" y="430"/>
      <point x="286" y="430" type="curve" smooth="yes"/>
      <point x="205" y="430"/>
      <point x="131" y="382"/>
    </contour>
    <contour>
      <point x="532" y="86" type="curve" smooth="yes"/>
      <point x="453" y="86"/>
      <point x="386" y="152"/>
      <point x="386" y="238" type="curve" smooth="yes"/>
      <point x="386" y="255"/>
      <point x="389" y="272"/>
      <point x="395" y="288" type="curve"/>
      <point x="423" y="215"/>
      <point x="496" y="161"/>
      <point x="580" y="161" type="curve" smooth="yes"/>
      <point x="611" y="161"/>
      <point x="640" y="169"/>
      <point x="664" y="181" type="curve"/>
      <point x="645" y="125"/>
      <point x="591" y="86"/>
    </contour>
    <contour>
      <point x="422" y="426" type="curve"/>
      <point x="394" y="499"/>
      <point x="321" y="553"/>
      <point x="237" y="553" type="curve" smooth="yes"/>
      <point x="207" y="553"/>
      <point x="178" y="545"/>
      <point x="152" y="533" type="curve"/>
      <point x="172" y="589"/>
      <point x="227" y="628"/>
      <point x="285" y="628" type="curve" smooth="yes"/>
      <point x="364" y="628"/>
      <point x="432" y="562"/>
      <point x="432" y="476" type="curve" smooth="yes"/>
      <point x="432" y="459"/>
      <point x="429" y="442"/>
    </contour>
    <contour>
      <point x="581" y="209" type="curve" smooth="yes"/>
      <point x="519" y="209"/>
      <point x="467" y="248"/>
      <point x="446" y="303" type="curve"/>
      <point x="474" y="290"/>
      <point x="502" y="284"/>
      <point x="532" y="284" type="curve" smooth="yes"/>
      <point x="613" y="284"/>
      <point x="687" y="332"/>
      <point x="716" y="410" type="curve"/>
      <point x="723" y="394"/>
      <point x="727" y="375"/>
      <point x="727" y="357" type="curve" smooth="yes"/>
      <point x="727" y="275"/>
      <point x="662" y="209"/>
    </contour>
    <contour>
      <point x="464" y="392" type="curve"/>
      <point x="479" y="419"/>
      <point x="486" y="449"/>
      <point x="486" y="479" type="curve" smooth="yes"/>
      <point x="486" y="563"/>
      <point x="432" y="640"/>
      <point x="347" y="664" type="curve"/>
      <point x="365" y="675"/>
      <point x="386" y="679"/>
      <point x="409" y="679" type="curve" smooth="yes"/>
      <point x="489" y="679"/>
      <point x="553" y="612"/>
      <point x="553" y="529" type="curve" smooth="yes"/>
      <point x="553" y="468"/>
      <point x="516" y="414"/>
    </contour>
    <contour>
      <point x="528" y="329" type="curve" smooth="yes"/>
      <point x="508" y="329"/>
      <point x="487" y="334"/>
      <point x="468" y="343" type="curve"/>
      <point x="549" y="368"/>
      <point x="608" y="442"/>
      <point x="608" y="529" type="curve" smooth="yes"/>
      <point x="608" y="561"/>
      <point x="601" y="590"/>
      <point x="587" y="616" type="curve"/>
      <point x="640" y="593"/>
      <point x="675" y="540"/>
      <point x="675" y="480" type="curve" smooth="yes"/>
      <point x="675" y="398"/>
      <point x="609" y="329"/>
    </contour>
  </outline>
</glyph>
<glyph name="uni058F" format="2">
  <advance width="613"/>
  <unicode hex="058F"/>
  <note>
uni058F
</note>
  <outline>
    <contour>
      <point x="48" y="365" type="line"/>
      <point x="174" y="365" type="line"/>
      <point x="174" y="461" type="line" smooth="yes"/>
      <point x="174" y="555"/>
      <point x="209" y="617"/>
      <point x="274" y="617" type="curve" smooth="yes"/>
      <point x="338" y="617"/>
      <point x="375" y="567"/>
      <point x="375" y="463" type="curve" smooth="yes"/>
      <point x="375" y="0" type="line"/>
      <point x="538" y="0" type="line"/>
      <point x="538" y="47" type="line"/>
      <point x="504" y="47"/>
      <point x="498" y="57"/>
      <point x="498" y="116" type="curve" smooth="yes"/>
      <point x="498" y="444" type="line" smooth="yes"/>
      <point x="498" y="596"/>
      <point x="416" y="674"/>
      <point x="273" y="674" type="curve" smooth="yes"/>
      <point x="130" y="674"/>
      <point x="48" y="587"/>
      <point x="48" y="443" type="curve" smooth="yes"/>
    </contour>
    <contour>
      <point x="277" y="293" type="line"/>
      <point x="596" y="293" type="line"/>
      <point x="596" y="348" type="line"/>
      <point x="277" y="348" type="line"/>
    </contour>
    <contour>
      <point x="277" y="187" type="line"/>
      <point x="596" y="187" type="line"/>
      <point x="596" y="242" type="line"/>
      <point x="277" y="242" type="line"/>
    </contour>
  </outline>
</glyph>
<glyph name="hyphentwo" format="2">
  <advance width="259"/>
  <unicode hex="2010"/>
  <outline>
    <contour>
      <point x="21" y="225" type="line"/>
      <point x="233" y="225" type="line"/>
      <point x="233" y="320" type="line"/>
      <point x="21" y="320" type="line"/>
    </contour>
  </outline>
</glyph>
<glyph name="uniFB13" format="2">
  <advance width="1021"/>
  <unicode hex="FB13"/>
  <note>
uniFB13
</note>
  <outline>
    <contour>
      <point x="453" y="115" type="curve" smooth="yes"/>
      <point x="453" y="413" type="line" smooth="yes"/>
      <point x="453" y="471"/>
      <point x="442" y="509"/>
      <point x="417" y="538" type="curve" smooth="yes"/>
      <point x="372" y="590"/>
      <point x="364" y="621"/>
      <point x="364" y="655" type="curve" smooth="yes"/>
      <point x="364" y="693"/>
      <point x="379" y="707"/>
      <point x="411" y="707" type="curve" smooth="yes"/>
      <point x="456" y="707"/>
      <point x="520" y="687"/>
      <point x="594" y="649" type="curve"/>
      <point x="669" y="704" type="line"/>
      <point x="580" y="745"/>
      <point x="490" y="762"/>
      <point x="405" y="762" type="curve" smooth="yes"/>
      <point x="326" y="762"/>
      <point x="250" y="729"/>
      <point x="250" y="631" type="curve" smooth="yes"/>
      <point x="250" y="592"/>
      <point x="269" y="551"/>
      <point x="299" y="511" type="curve" smooth="yes"/>
      <point x="322" y="480"/>
      <point x="332" y="444"/>
      <point x="332" y="406" type="curve" smooth="yes"/>
      <point x="332" y="220" type="line" smooth="yes"/>
      <point x="332" y="125"/>
      <point x="309" y="63"/>
      <point x="256" y="63" type="curve" smooth="yes"/>
      <point x="210" y="63"/>
      <point x="194" y="119"/>
      <point x="194" y="210" type="curve" smooth="yes"/>
      <point x="194" y="492" type="line"/>
      <point x="23" y="492" type="line"/>
      <point x="23" y="445" type="line"/>
      <point x="67" y="445"/>
      <point x="73" y="438"/>
      <point x="73" y="373" type="curve" smooth="yes"/>
      <point x="73" y="187" type="line" smooth="yes"/>
      <point x="73" y="51"/>
      <point x="115" y="-10"/>
      <point x="210" y="-10" type="curve" smooth="yes"/>
      <point x="270" y="-10"/>
      <point x="307" y="20"/>
      <point x="331" y="72" type="curve"/>
      <point x="335" y="72" type="line"/>
      <point x="352" y="0" type="line"/>
      <point x="501" y="0" type="line"/>
      <point x="501" y="47" type="line"/>
      <point x="457" y="47"/>
      <point x="453" y="52"/>
    </contour>
    <contour>
      <point x="946" y="115" type="curve" smooth="yes"/>
      <point x="946" y="492" type="line"/>
      <point x="782" y="492" type="line"/>
      <point x="782" y="445" type="line"/>
      <point x="816" y="445"/>
      <point x="825" y="437"/>
      <point x="825" y="374" type="curve" smooth="yes"/>
      <point x="825" y="222" type="line" smooth="yes"/>
      <point x="825" y="124"/>
      <point x="795" y="63"/>
      <point x="735" y="63" type="curve" smooth="yes"/>
      <point x="682" y="63"/>
      <point x="660" y="113"/>
      <point x="660" y="210" type="curve" smooth="yes"/>
      <point x="660" y="320"/>
      <point x="679" y="415"/>
      <point x="724" y="527" type="curve"/>
      <point x="650" y="541" type="line"/>
      <point x="575" y="418"/>
      <point x="539" y="304"/>
      <point x="539" y="187" type="curve" smooth="yes"/>
      <point x="539" y="51"/>
      <point x="588" y="-10"/>
      <point x="691" y="-10" type="curve" smooth="yes"/>
      <point x="754" y="-10"/>
      <point x="799" y="20"/>
      <point x="824" y="72" type="curve"/>
      <point x="828" y="72" type="line"/>
      <point x="845" y="0" type="line"/>
      <point x="995" y="0" type="line"/>
      <point x="995" y="47" type="line"/>
      <point x="950" y="47"/>
      <point x="946" y="52"/>
    </contour>
    <contour>
      <point x="669" y="704" type="curve"/>
      <point x="561" y="715" type="line"/>
      <point x="544" y="695"/>
      <point x="535" y="669"/>
      <point x="535" y="642" type="curve" smooth="yes"/>
      <point x="535" y="573"/>
      <point x="575" y="527"/>
      <point x="642" y="510" type="curve"/>
      <point x="724" y="527" type="line"/>
      <point x="724" y="542" type="line"/>
      <point x="656" y="555"/>
      <point x="639" y="583"/>
      <point x="639" y="630" type="curve" smooth="yes"/>
      <point x="639" y="657"/>
      <point x="647" y="681"/>
    </contour>
  </outline>
</glyph>
<glyph name="uniFB14" format="2">
  <advance width="1008"/>
  <unicode hex="FB14"/>
  <note>
uniFB14
</note>
  <outline>
    <contour>
      <point x="250" y="631" type="curve" smooth="yes"/>
      <point x="250" y="592"/>
      <point x="269" y="551"/>
      <point x="299" y="511" type="curve" smooth="yes"/>
      <point x="322" y="480"/>
      <point x="332" y="444"/>
      <point x="332" y="406" type="curve" smooth="yes"/>
      <point x="332" y="220" type="line" smooth="yes"/>
      <point x="332" y="125"/>
      <point x="309" y="63"/>
      <point x="256" y="63" type="curve" smooth="yes"/>
      <point x="210" y="63"/>
      <point x="194" y="119"/>
      <point x="194" y="213" type="curve" smooth="yes"/>
      <point x="194" y="492" type="line"/>
      <point x="23" y="492" type="line"/>
      <point x="23" y="445" type="line"/>
      <point x="67" y="445"/>
      <point x="73" y="438"/>
      <point x="73" y="373" type="curve" smooth="yes"/>
      <point x="73" y="187" type="line" smooth="yes"/>
      <point x="73" y="51"/>
      <point x="115" y="-10"/>
      <point x="210" y="-10" type="curve" smooth="yes"/>
      <point x="270" y="-10"/>
      <point x="307" y="20"/>
      <point x="331" y="72" type="curve"/>
      <point x="335" y="72" type="line"/>
      <point x="352" y="0" type="line"/>
      <point x="501" y="0" type="line"/>
      <point x="501" y="47" type="line"/>
      <point x="457" y="47"/>
      <point x="453" y="52"/>
      <point x="453" y="115" type="curve" smooth="yes"/>
      <point x="453" y="413" type="line" smooth="yes"/>
      <point x="453" y="468"/>
      <point x="442" y="509"/>
      <point x="417" y="538" type="curve" smooth="yes"/>
      <point x="372" y="590"/>
      <point x="364" y="621"/>
      <point x="364" y="655" type="curve" smooth="yes"/>
      <point x="364" y="693"/>
      <point x="379" y="710"/>
      <point x="411" y="710" type="curve" smooth="yes"/>
      <point x="468" y="710"/>
      <point x="525" y="691"/>
      <point x="599" y="653" type="curve"/>
      <point x="673" y="704" type="line"/>
      <point x="571" y="745"/>
      <point x="489" y="762"/>
      <point x="405" y="762" type="curve" smooth="yes"/>
      <point x="326" y="762"/>
      <point x="250" y="729"/>
    </contour>
    <contour>
      <point x="932" y="322" type="line"/>
      <point x="811" y="322" type="line"/>
      <point x="811" y="222" type="line" smooth="yes"/>
      <point x="811" y="128"/>
      <point x="789" y="63"/>
      <point x="736" y="63" type="curve" smooth="yes"/>
      <point x="690" y="63"/>
      <point x="673" y="119"/>
      <point x="673" y="210" type="curve" smooth="yes"/>
      <point x="673" y="704" type="line"/>
      <point x="552" y="686" type="line"/>
      <point x="552" y="187" type="line" smooth="yes"/>
      <point x="552" y="51"/>
      <point x="594" y="-10"/>
      <point x="690" y="-10" type="curve" smooth="yes"/>
      <point x="749" y="-10"/>
      <point x="787" y="20"/>
      <point x="811" y="72" type="curve"/>
      <point x="815" y="72" type="line"/>
      <point x="832" y="0" type="line"/>
      <point x="981" y="0" type="line"/>
      <point x="981" y="47" type="line"/>
      <point x="937" y="47"/>
      <point x="932" y="52"/>
      <point x="932" y="115" type="curve" smooth="yes"/>
    </contour>
    <contour>
      <point x="639" y="437" type="line"/>
      <point x="962" y="437" type="line"/>
      <point x="962" y="492" type="line"/>
      <point x="639" y="492" type="line"/>
    </contour>
  </outline>
</glyph>
<glyph name="uniFB15" format="2">
  <advance width="1003"/>
  <unicode hex="FB15"/>
  <note>
uniFB15
</note>
  <outline>
    <contour>
      <point x="250" y="631" type="curve" smooth="yes"/>
      <point x="250" y="592"/>
      <point x="269" y="551"/>
      <point x="299" y="511" type="curve" smooth="yes"/>
      <point x="322" y="480"/>
      <point x="332" y="444"/>
      <point x="332" y="406" type="curve" smooth="yes"/>
      <point x="332" y="222" type="line" smooth="yes"/>
      <point x="332" y="128"/>
      <point x="309" y="63"/>
      <point x="256" y="63" type="curve" smooth="yes"/>
      <point x="210" y="63"/>
      <point x="194" y="116"/>
      <point x="194" y="210" type="curve" smooth="yes"/>
      <point x="194" y="492" type="line"/>
      <point x="23" y="492" type="line"/>
      <point x="23" y="445" type="line"/>
      <point x="67" y="445"/>
      <point x="73" y="438"/>
      <point x="73" y="373" type="curve" smooth="yes"/>
      <point x="73" y="187" type="line" smooth="yes"/>
      <point x="73" y="51"/>
      <point x="115" y="-10"/>
      <point x="210" y="-10" type="curve" smooth="yes"/>
      <point x="270" y="-10"/>
      <point x="307" y="20"/>
      <point x="331" y="72" type="curve"/>
      <point x="335" y="72" type="line"/>
      <point x="352" y="0" type="line"/>
      <point x="501" y="0" type="line"/>
      <point x="501" y="47" type="line"/>
      <point x="457" y="47"/>
      <point x="453" y="52"/>
      <point x="453" y="115" type="curve" smooth="yes"/>
      <point x="453" y="413" type="line" smooth="yes"/>
      <point x="453" y="465"/>
      <point x="442" y="509"/>
      <point x="417" y="538" type="curve" smooth="yes"/>
      <point x="372" y="590"/>
      <point x="364" y="621"/>
      <point x="364" y="655" type="curve" smooth="yes"/>
      <point x="364" y="693"/>
      <point x="379" y="707"/>
      <point x="411" y="707" type="curve" smooth="yes"/>
      <point x="464" y="707"/>
      <point x="524" y="687"/>
      <point x="598" y="649" type="curve"/>
      <point x="673" y="704" type="line"/>
      <point x="584" y="745"/>
      <point x="500" y="762"/>
      <point x="413" y="762" type="curve" smooth="yes"/>
      <point x="319" y="762"/>
      <point x="250" y="729"/>
    </contour>
    <contour>
      <point x="980" y="47" type="line"/>
      <point x="938" y="47"/>
      <point x="931" y="55"/>
      <point x="931" y="119" type="curve" smooth="yes"/>
      <point x="931" y="313" type="line" smooth="yes"/>
      <point x="931" y="444"/>
      <point x="887" y="502"/>
      <point x="798" y="502" type="curve" smooth="yes"/>
      <point x="728" y="502"/>
      <point x="696" y="467"/>
      <point x="674" y="419" type="curve"/>
      <point x="670" y="419" type="line"/>
      <point x="671" y="443"/>
      <point x="673" y="469"/>
      <point x="673" y="494" type="curve" smooth="yes"/>
      <point x="673" y="704" type="line"/>
      <point x="552" y="678" type="line"/>
      <point x="552" y="-237" type="line"/>
      <point x="724" y="-237" type="line"/>
      <point x="724" y="-190" type="line"/>
      <point x="681" y="-190"/>
      <point x="673" y="-182"/>
      <point x="673" y="-122" type="curve" smooth="yes"/>
      <point x="673" y="268" type="line" smooth="yes"/>
      <point x="673" y="365"/>
      <point x="699" y="428"/>
      <point x="749" y="428" type="curve" smooth="yes"/>
      <point x="796" y="428"/>
      <point x="810" y="375"/>
      <point x="810" y="291" type="curve" smooth="yes"/>
      <point x="810" y="0" type="line"/>
      <point x="980" y="0" type="line"/>
    </contour>
  </outline>
</glyph>
<glyph name="uniFB16" format="2">
  <advance width="1021"/>
  <unicode hex="FB16"/>
  <note>
uniFB16
</note>
  <outline>
    <contour>
      <point x="332" y="-237" type="line"/>
      <point x="453" y="-237" type="line"/>
      <point x="453" y="655" type="line" smooth="yes"/>
      <point x="453" y="693"/>
      <point x="461" y="707"/>
      <point x="482" y="707" type="curve" smooth="yes"/>
      <point x="515" y="707"/>
      <point x="550" y="689"/>
      <point x="594" y="649" type="curve"/>
      <point x="669" y="704" type="line"/>
      <point x="591" y="746"/>
      <point x="531" y="762"/>
      <point x="461" y="762" type="curve" smooth="yes"/>
      <point x="386" y="762"/>
      <point x="332" y="729"/>
      <point x="332" y="631" type="curve" smooth="yes"/>
      <point x="332" y="259" type="line" smooth="yes"/>
      <point x="332" y="153"/>
      <point x="309" y="63"/>
      <point x="256" y="63" type="curve" smooth="yes"/>
      <point x="210" y="63"/>
      <point x="194" y="119"/>
      <point x="194" y="210" type="curve" smooth="yes"/>
      <point x="194" y="492" type="line"/>
      <point x="23" y="492" type="line"/>
      <point x="23" y="445" type="line"/>
      <point x="67" y="445"/>
      <point x="73" y="438"/>
      <point x="73" y="373" type="curve" smooth="yes"/>
      <point x="73" y="187" type="line" smooth="yes"/>
      <point x="73" y="51"/>
      <point x="115" y="-10"/>
      <point x="210" y="-10" type="curve" smooth="yes"/>
      <point x="270" y="-10"/>
      <point x="307" y="20"/>
      <point x="331" y="72" type="curve"/>
      <point x="335" y="72" type="line"/>
      <point x="333" y="49"/>
      <point x="332" y="24"/>
      <point x="332" y="1" type="curve" smooth="yes"/>
    </contour>
    <contour>
      <point x="369" y="-237" type="line"/>
      <point x="566" y="-237" type="line"/>
      <point x="566" y="-182" type="line"/>
      <point x="369" y="-182" type="line"/>
    </contour>
    <contour>
      <point x="691" y="-10" type="curve" smooth="yes"/>
      <point x="754" y="-10"/>
      <point x="799" y="20"/>
      <point x="824" y="72" type="curve"/>
      <point x="828" y="72" type="line"/>
      <point x="845" y="0" type="line"/>
      <point x="995" y="0" type="line"/>
      <point x="995" y="47" type="line"/>
      <point x="950" y="47"/>
      <point x="946" y="52"/>
      <point x="946" y="115" type="curve" smooth="yes"/>
      <point x="946" y="492" type="line"/>
      <point x="782" y="492" type="line"/>
      <point x="782" y="447" type="line"/>
      <point x="816" y="447"/>
      <point x="825" y="440"/>
      <point x="825" y="377" type="curve" smooth="yes"/>
      <point x="825" y="222" type="line" smooth="yes"/>
      <point x="825" y="124"/>
      <point x="795" y="63"/>
      <point x="735" y="63" type="curve" smooth="yes"/>
      <point x="682" y="63"/>
      <point x="660" y="109"/>
      <point x="660" y="210" type="curve" smooth="yes"/>
      <point x="660" y="320"/>
      <point x="679" y="415"/>
      <point x="724" y="527" type="curve"/>
      <point x="650" y="541" type="line"/>
      <point x="575" y="418"/>
      <point x="539" y="304"/>
      <point x="539" y="187" type="curve" smooth="yes"/>
      <point x="539" y="51"/>
      <point x="588" y="-10"/>
    </contour>
    <contour>
      <point x="642" y="510" type="curve"/>
      <point x="724" y="527" type="line"/>
      <point x="724" y="542" type="line"/>
      <point x="656" y="555"/>
      <point x="639" y="583"/>
      <point x="639" y="630" type="curve" smooth="yes"/>
      <point x="639" y="657"/>
      <point x="647" y="681"/>
      <point x="669" y="704" type="curve"/>
      <point x="561" y="715" type="line"/>
      <point x="544" y="695"/>
      <point x="535" y="669"/>
      <point x="535" y="642" type="curve" smooth="yes"/>
      <point x="535" y="573"/>
      <point x="575" y="527"/>
    </contour>
  </outline>
</glyph>
<glyph name="uniFB17" format="2">
  <advance width="1266"/>
  <unicode hex="FB17"/>
  <note>
uniFB17
</note>
  <outline>
    <contour>
      <point x="250" y="631" type="curve" smooth="yes"/>
      <point x="250" y="592"/>
      <point x="269" y="551"/>
      <point x="299" y="511" type="curve" smooth="yes"/>
      <point x="322" y="480"/>
      <point x="332" y="444"/>
      <point x="332" y="406" type="curve" smooth="yes"/>
      <point x="332" y="222" type="line" smooth="yes"/>
      <point x="332" y="128"/>
      <point x="309" y="63"/>
      <point x="256" y="63" type="curve" smooth="yes"/>
      <point x="210" y="63"/>
      <point x="194" y="119"/>
      <point x="194" y="210" type="curve" smooth="yes"/>
      <point x="194" y="492" type="line"/>
      <point x="23" y="492" type="line"/>
      <point x="23" y="445" type="line"/>
      <point x="67" y="445"/>
      <point x="73" y="438"/>
      <point x="73" y="373" type="curve" smooth="yes"/>
      <point x="73" y="187" type="line" smooth="yes"/>
      <point x="73" y="51"/>
      <point x="115" y="-10"/>
      <point x="210" y="-10" type="curve" smooth="yes"/>
      <point x="270" y="-10"/>
      <point x="307" y="20"/>
      <point x="331" y="72" type="curve"/>
      <point x="335" y="72" type="line"/>
      <point x="352" y="0" type="line"/>
      <point x="501" y="0" type="line"/>
      <point x="501" y="47" type="line"/>
      <point x="457" y="47"/>
      <point x="453" y="52"/>
      <point x="453" y="115" type="curve" smooth="yes"/>
      <point x="453" y="413" type="line" smooth="yes"/>
      <point x="453" y="467"/>
      <point x="442" y="509"/>
      <point x="417" y="538" type="curve" smooth="yes"/>
      <point x="372" y="590"/>
      <point x="364" y="621"/>
      <point x="364" y="655" type="curve" smooth="yes"/>
      <point x="364" y="693"/>
      <point x="379" y="707"/>
      <point x="411" y="707" type="curve" smooth="yes"/>
      <point x="462" y="707"/>
      <point x="524" y="687"/>
      <point x="598" y="649" type="curve"/>
      <point x="673" y="704" type="line"/>
      <point x="584" y="745"/>
      <point x="497" y="762"/>
      <point x="405" y="762" type="curve" smooth="yes"/>
      <point x="326" y="762"/>
      <point x="250" y="729"/>
    </contour>
    <contour>
      <point x="1190" y="115" type="curve" smooth="yes"/>
      <point x="1190" y="492" type="line"/>
      <point x="1020" y="492" type="line"/>
      <point x="1020" y="445" type="line"/>
      <point x="1057" y="445"/>
      <point x="1069" y="437"/>
      <point x="1069" y="374" type="curve" smooth="yes"/>
      <point x="1069" y="222" type="line" smooth="yes"/>
      <point x="1069" y="128"/>
      <point x="1047" y="63"/>
      <point x="995" y="63" type="curve" smooth="yes"/>
      <point x="949" y="63"/>
      <point x="932" y="119"/>
      <point x="932" y="210" type="curve" smooth="yes"/>
      <point x="932" y="313" type="line" smooth="yes"/>
      <point x="932" y="444"/>
      <point x="887" y="502"/>
      <point x="798" y="502" type="curve" smooth="yes"/>
      <point x="728" y="502"/>
      <point x="696" y="467"/>
      <point x="674" y="419" type="curve"/>
      <point x="670" y="419" type="line"/>
      <point x="671" y="443"/>
      <point x="673" y="469"/>
      <point x="673" y="494" type="curve" smooth="yes"/>
      <point x="673" y="704" type="line"/>
      <point x="552" y="685" type="line"/>
      <point x="552" y="-237" type="line"/>
      <point x="724" y="-237" type="line"/>
      <point x="724" y="-190" type="line"/>
      <point x="681" y="-190"/>
      <point x="673" y="-182"/>
      <point x="673" y="-122" type="curve" smooth="yes"/>
      <point x="673" y="268" type="line" smooth="yes"/>
      <point x="673" y="365"/>
      <point x="699" y="428"/>
      <point x="749" y="428" type="curve" smooth="yes"/>
      <point x="796" y="428"/>
      <point x="811" y="378"/>
      <point x="811" y="291" type="curve" smooth="yes"/>
      <point x="811" y="187" type="line" smooth="yes"/>
      <point x="811" y="51"/>
      <point x="852" y="-10"/>
      <point x="948" y="-10" type="curve" smooth="yes"/>
      <point x="1007" y="-10"/>
      <point x="1044" y="20"/>
      <point x="1068" y="72" type="curve"/>
      <point x="1072" y="72" type="line"/>
      <point x="1089" y="0" type="line"/>
      <point x="1239" y="0" type="line"/>
      <point x="1239" y="47" type="line"/>
      <point x="1195" y="47"/>
      <point x="1190" y="52"/>
    </contour>
  </outline>
</glyph>
